<?xml version="1.0" encoding="UTF-8" standalone="no"?>
<svg
   xmlns:dc="http://purl.org/dc/elements/1.1/"
   xmlns:cc="http://creativecommons.org/ns#"
   xmlns:rdf="http://www.w3.org/1999/02/22-rdf-syntax-ns#"
   xmlns:svg="http://www.w3.org/2000/svg"
   xmlns="http://www.w3.org/2000/svg"
   xmlns:xlink="http://www.w3.org/1999/xlink"
   id="svg211"
   height="595.2756"
   width="841.8898"
   version="1.1">
  <metadata
     id="metadata217">
    <rdf:RDF>
      <cc:Work
         rdf:about="">
        <dc:format>image/svg+xml</dc:format>
        <dc:type
           rdf:resource="http://purl.org/dc/dcmitype/StillImage" />
        <dc:title></dc:title>
      </cc:Work>
    </rdf:RDF>
  </metadata>
  <defs
     id="defs215" />
  <g
     transform="matrix(0.39429734,0,0,0.39429734,255.99413,183.97564)"
     id="Layer1000">
    <path
       id="path2"
       style="fill:#00378b;fill-rule:evenodd"
       d="m -263.5518,237.8571 h -307.8867 c 7.5786,-28.2838 45.0113,-77.5818 92.952,-77.5818 h 234.9401 z" />
    <path
       id="path4"
       style="fill:#00378b;fill-rule:evenodd"
       d="m 79.466,237.8571 h -307.8866 l 50.5022,-77.5818 H 99.4714 Z" />
    <path
       id="path6"
       style="fill:#00378b;fill-rule:evenodd"
       d="m 12.2373,487.923 h -160.7497 -116.8854 l 20.8777,-83.6805 h 1.0687 l 34.9347,-133.2062 H -78.1191 69.1185 l -20.8778,85.3882 h -154.9958 l -12.7533,47.818 H 33.115 Z" />
    <path
       id="path8"
       style="fill:#00378b;fill-rule:evenodd"
       d="m -639.3164,487.923 h 160.7497 84.0723 c 42.1885,3.0429 115.4891,-45.1754 110.9913,-119.5604 1.9428,-67.1817 -35.4915,-97.153 -104.4637,-97.3263 h -52.328 -140.5284 c -4.5457,43.9278 6.2917,78.882 55.4507,79.1484 l 93.6213,0.5063 c 30.0082,2.2766 23.3195,50.4211 -2.2984,49.2814 l -183.0599,-0.3652 z" />
    <path
       id="path10"
       style="fill:none;stroke:#1b1918;stroke-width:7.99989986;stroke-linecap:butt;stroke-linejoin:miter;stroke-dasharray:none"
       d="m 698.4537,725.9253 -18.8417,10.2462 -26.8371,0.9765 -9.2706,-10.7349 -66.847,45.3783 3.9031,14.1502 -2.9276,9.7583 -8.2941,11.7104 -18.7845,4.5136 -20.1272,9.2715 -15.004,25.9824 14.5162,20.2497 -30.009,6.9534 -18.0534,-18.4203 -19.6393,-16.224 -15.005,-8.4168 -33.3018,-14.638 -33.7896,-13.419 -39.2796,-16.8334 -15.3701,1.3416 -17.81,-20.6158 -22.5651,-0.3661 -22.933,-25.3728 -24.6407,-2.4389 -12.686,-0.9765 -14.3946,-8.0507 -14.638,-9.5149 -3.9031,-5.3674 -2.9276,-4.1475 2.4398,-6.8308 5.3665,-9.7584 9.7593,-6.3439 v -12.9911 l -20.0663,-4.5136 -16.9561,9.3324 -15.4937,-50.2589 9.5149,-12.9303 -13.9058,-28.057 -0.2444,-60.7474 9.7584,-47.8181 68.7871,-79.0554 11.3563,-11.4568 4.2701,-10.6131 -1.7077,-7.929 -5.6117,-8.295 -1.3417,-3.5371 34.2774,-41.9629 17.0778,-1.0981 2.1955,-18.9073 6.8317,-9.0271 7.5628,-5.1231 11.8322,-3.6597 18.542,-6.0986 17.5656,-9.515 10.734,-8.7828 7.4411,-11.3443 4.8797,-12.0765 35.1312,-70.6275 5.6108,-7.929 10.7348,-10.0036 10.8566,-6.5864 12.1991,-2.1964 15.1258,0.7321 2.6842,-0.366 10.1244,-27.2023 10.9792,-25.9832 5.123,-23.2991 6.0996,-26.5928 4.5126,-24.3972 4.3919,-5.7335 8.1733,-7.1968 1.4633,-32.2046 1.7077,-17.4438 3.538,-11.1 10.7377,-23.4217 12.5642,-22.2009 6.9534,-12.0765 0.6095,-28.4221 7.9289,-31.8376 6.7091,-19.3959 12.0764,-30.862 13.9068,-23.1764 12.686,-14.638 11.3443,-3.9041 16.9561,-2.5615 -0.9755,12.1981 -3.538,19.396 -6.4647,15.7362 -10.0027,14.1493 -10.7349,11.2226 30.9837,35.7416 26.2267,-11.2226 7.5629,8.9054 23.9095,1.7077 17.0778,20.0054 31.1054,20.2489 11.2235,-40.8647 39.5222,-50.9891 27.0805,8.0516 18.2977,3.9031 11.2226,2.6833 0.9756,29.0325 18.6638,20.1272 4.8796,20.6158 3.4154,3.6597 3.538,-4.2701 c 0,0 -0.2443,-8.4167 -0.7321,-9.2706 -0.4878,-0.8538 -1.0982,-11.5887 -1.0982,-11.5887 0,0 3.171,-5.123 4.2692,-5.6108 1.0982,-0.4878 6.2213,-2.1964 6.2213,-2.1964 l 8.295,5.49 90.3905,57.2104 23.1773,1.7077 -4.1475,-29.7638 16.3457,-23.4208 33.4235,32.9358 79.5339,-34.4 18.5412,8.295 23.6651,-22.933 55.6244,3.9031 18.0543,-7.8063 19.0289,25.6163 -21.4687,2.9276 -9.2706,4.3918 -5.124,15.6136 1.4643,16.8335 4.3909,4.3918 20.2498,-10.0027 10.0027,11.4661 1.7077,8.7837 -4.8797,10.7339 -10.0027,16.3457 -6.3429,8.7837 -4.6353,12.4416 -3.6598,10.4914 -4.3909,14.638 -0.9765,15.6136 8.295,15.3701 12.4426,12.4425 12.9303,9.0263 3.9041,6.8316 4.3909,11.9539 -0.4878,16.1022 -5.8552,13.9059 1.2199,14.1502 5.3674,14.8824 -0.4887,4.6353 -5.8552,15.1257 -7.8063,10.7349 -21.2253,8.7828 -10.7348,5.3674 -11.2227,-1.4633 -14.3936,-8.0516 -9.0272,-13.6615 -6.0995,-10.9792 -10.2461,5.6117 -1.4643,34.8933 -59.7682,78.4523 23.6642,32.9182 -64.6515,216.6433 -20.2489,15.4873 -13.9068,12.4425 -4.8787,16.3457 3.4154,10.7339 10.0027,13.1747 10.9783,11.466 10.4904,5.6118 1.22,4.3909 -21.9575,62.4561 -47.5728,38.7909 -0.4887,25.3719 -20.4932,-2.4389 -2.1955,30.9837 -27.5683,-14.8823 -30.4959,-9.0272 -30.9837,-7.5629 -31.9601,-2.9276 -21.9566,-3.4153 -17.3221,-1.7077 -6.5865,-3.6598 -11.5877,-9.3923 -12.6869,3.2937 -3.2937,19.0299 2.6842,17.5656 -18.6638,-10.2471 -15.004,6.9534 -7.1978,9.881 -8.295,17.3222 -9.8801,7.8063 -21.714,-2.6833 -8.6832,-9.1903 z" />
    <path
       id="path12"
       style="fill:#00378b;fill-rule:evenodd"
       d="M 422.9209,237.7253 H 136.9908 c 7.5786,-28.2839 45.0113,-77.5819 92.952,-77.5819 h 215.7895 z" />
    <path
       id="path14"
       style="fill:#00378b;fill-rule:evenodd"
       d="m 1272.4919,486.2282 h 117.5918 l 60.2818,-216.6433 h -107.9763 -9.6155 -151.2605 -9.9013 -107.6905 l -60.2818,216.6433 h 117.5918 l 55.049,-197.8384 69.2536,67.4371 81.285,-64.8405 z" />
    <path
       id="path16"
       style="fill:#00378b;fill-rule:evenodd"
       d="m 1459.4314,236.6667 21.7749,-78.4523 h -116.0049 l -82.5841,65.1394 -67.9664,-65.1394 h -113.5457 l -21.9243,78.4523 z" />
    <defs
       id="defs23">
      <radialGradient
         gradientUnits="userSpaceOnUse"
         fy="340.34006"
         fx="720.09241"
         r="446.94614"
         cy="340.34006"
         cx="720.09241"
         id="grad1">
        <stop
           id="stop18"
           stop-opacity="1.0000"
           stop-color="#008bd0"
           offset="0%" />
        <stop
           id="stop20"
           stop-opacity="1.0000"
           stop-color="#00378b"
           offset="100%" />
      </radialGradient>
    </defs>
    <path
       id="path25"
       style="fill:url(#grad1)"
       d="m 720.0929,116.8669 c 123.4211,0 223.4733,100.0515 223.4733,223.4726 0,123.4211 -100.0522,223.4732 -223.4733,223.4732 -123.421,0 -223.4732,-100.0521 -223.4732,-223.4732 0,-123.4211 100.0522,-223.4726 223.4732,-223.4726 z" />
    <path
       id="path27"
       style="fill:#d9dadb;fill-rule:evenodd;stroke:#1b1918;stroke-width:0.56690001;stroke-linecap:butt;stroke-linejoin:miter;stroke-dasharray:none"
       d="m 695.4662,562.4712 c 9.183,0.7266 17.1193,1.3453 24.9782,1.3416 8.4416,-0.005 16.8039,-0.6878 26.6757,-1.3416 v 36.7172 c 0,3.8949 -3.1867,7.0825 -7.0825,7.0825 h -37.4889 c -3.8958,0 -7.0825,-3.1867 -7.0825,-7.0825 z" />
    <path
       id="path29"
       style="fill:#c4c6c8;fill-rule:evenodd"
       d="m 707.9687,612.6113 h 26.3483 c 5.2337,0 9.5151,4.2808 9.5151,9.5146 V 730.447 c 0,5.2338 -4.2814,9.5152 -9.5151,9.5152 h -26.3483 c -5.2338,0 -9.5152,-4.2814 -9.5152,-9.5152 V 622.1259 c 0,-5.2338 4.2814,-9.5146 9.5152,-9.5146 z" />
    <path
       id="path31"
       style="fill:#1b1918;fill-rule:evenodd"
       d="m 707.9687,612.0093 h 26.3483 c 2.7824,0 5.3132,1.1384 7.1457,2.9708 1.8331,1.8331 2.9714,4.3627 2.9714,7.1458 V 730.447 c 0,2.7807 -1.1383,5.3103 -2.9726,7.1445 -1.8319,1.8343 -4.3615,2.9727 -7.1445,2.9727 h -26.3483 c -2.78,0 -5.309,-1.1378 -7.1433,-2.9715 -1.8361,-1.8367 -2.9739,-4.3656 -2.9739,-7.1457 V 622.1259 c 0,-2.7831 1.1384,-5.3127 2.9715,-7.1458 1.8325,-1.8324 4.3633,-2.9708 7.1457,-2.9708 z m 26.3483,1.204 h -26.3483 c -2.4507,0 -4.6799,1.0035 -6.2945,2.6181 -1.6158,1.6157 -2.6187,3.8443 -2.6187,6.2945 V 730.447 c 0,2.452 1.0023,4.6812 2.6163,6.2945 1.6158,1.6164 3.845,2.6187 6.2969,2.6187 h 26.3483 c 2.4501,0 4.6787,-1.0029 6.2945,-2.6187 1.6163,-1.6133 2.6186,-3.8425 2.6186,-6.2945 V 622.1259 c 0,-2.4502 -1.0029,-4.6788 -2.6186,-6.2945 -1.6146,-1.6146 -3.8438,-2.6181 -6.2945,-2.6181 z" />
    <path
       id="path33"
       style="fill:none;stroke:#1b1918;stroke-width:0.56690001;stroke-linecap:butt;stroke-linejoin:miter;stroke-dasharray:none"
       d="m 705.7684,606.271 h 30.7495 v 6.3403 h -30.7495 z" />
    <path
       id="path35"
       style="fill:#d9dadb;fill-rule:evenodd"
       d="m 747.1201,576.011 h -51.6539 l -39.9435,-5.3674 -32.6914,-4.1475 -24.1529,-3.4154 -9.2706,-0.7321 -4.7598,0.4878 -2.9884,1.585 -1.8912,4.1475 0.4877,32.0211 1.8295,2.4398 3.111,1.3416 5.9161,1.0373 24.2746,-1.2807 80.0789,-8.5385 h 51.6539 l 23.0649,1.7077 28.057,3.171 28.1778,3.172 c 29.2317,1.9133 35.1164,7.2623 35.2538,-19.7611 -0.1005,-20.6057 1.7197,-21.7205 -19.3959,-20.0054 l -15.3692,1.2199 -29.5204,3.5371 -27.5683,3.4154 z" />
    <path
       id="path37"
       style="fill:#1b1918;fill-rule:evenodd"
       d="m 747.1203,576.613 c -25.4074,0 -37.882,0.5261 -51.6539,-0.4268 -10.5001,-0.7266 -21.7683,-2.4947 -40.0239,-4.9479 -19.0345,-2.4152 -37.8265,-4.8737 -56.8142,-7.5581 l -9.2196,-0.7284 -4.5818,0.4696 -2.7066,1.4358 -1.7506,3.8377 0.4828,31.691 1.6146,2.1533 2.904,1.2522 5.7828,1.0144 24.1829,-1.2763 c 31.7356,-3.5229 56.4331,-6.6286 80.0724,-7.9343 31.5893,-1.7446 61.2509,-0.5713 102.8984,4.276 l 28.1651,3.1707 c 4.3729,0.286 8.2624,0.6544 11.6805,0.9771 4.3085,0.4069 7.8639,0.7434 10.7638,0.7579 9.6097,0.0487 12.0694,-3.6096 12.1573,-20.8978 -0.008,-1.632 -0.003,-3.1442 0,-4.5397 0.009,-3.3964 0.0163,-6.1151 -0.1601,-8.2865 -0.614,-7.5647 -3.7438,-7.7856 -18.5897,-6.5798 l -15.3588,1.2196 -29.5045,3.535 -27.5577,3.4145 c -4.984,0.8705 -18.7023,3.9708 -22.7832,3.9708 z m -51.2879,-1.487 25.4609,0.602 25.7788,-0.319 c 17.4826,-3.0534 32.5531,-5.1838 50.2434,-7.3757 15.2986,-1.8325 29.637,-3.5464 44.9151,-4.7594 15.8355,-1.2859 19.1766,-1.0108 19.8828,7.6851 0.177,2.1744 0.1691,4.9334 0.1601,8.3804 -0.003,1.3949 -0.007,2.9059 0,4.5373 -0.0933,18.2851 -2.7963,22.1535 -13.3613,22.0993 -2.9601,-0.015 -6.5377,-0.3527 -10.8721,-0.7627 -3.3833,-0.3196 -7.2355,-0.6839 -11.6583,-0.9734 l -28.2055,-3.1744 -28.0392,-3.1695 -23.0265,-1.7042 -31.405,-0.0945 -20.2392,0.6622 c -9.9348,1.0589 -18.7914,1.3641 -28.5781,2.3736 -24.9076,2.5688 -50.5046,5.592 -75.8156,6.8791 -2.0161,-0.3456 -4.0364,-0.7002 -6.0501,-1.0614 -1.1077,-0.4701 -2.2154,-0.9505 -3.3188,-1.4309 l -2.0444,-2.7259 c -0.165,-10.7829 -0.3468,-21.5677 -0.4925,-32.3513 l 2.033,-4.4578 3.2694,-1.7344 c 12.5939,-1.2269 26.0022,1.8915 38.4443,3.6505 l 32.6843,4.1478 z" />
    <g
       id="Layer1001" />
    <g
       id="Layer1002">
      <defs
         id="defs48">
        <linearGradient
           id="grad2">
          <stop
             id="stop40"
             stop-opacity="1.0000"
             stop-color="#ab417f"
             offset="0.0000%" />
          <stop
             id="stop42"
             stop-opacity="1.0000"
             stop-color="#b1a960"
             offset="57.0000%" />
          <stop
             id="stop44"
             stop-opacity="1.0000"
             stop-color="#80ae56"
             offset="100.0000%" />
        </linearGradient>
        <linearGradient
           gradientUnits="userSpaceOnUse"
           gradientTransform="scale(0.98681521,1.013361)"
           y2="644.27252"
           x2="908.83398"
           y1="565.79712"
           x1="908.83398"
           id="grad3"
           xlink:href="#grad2" />
      </defs>
      <path
         id="path50"
         style="fill:url(#grad3);stroke:#1b1918;stroke-width:0.56690001;stroke-linecap:butt;stroke-linejoin:miter;stroke-dasharray:none"
         d="m 897.2631,634.7788 c 20.9966,-22.0165 36.5779,-42.2275 47.8181,-60.9928 l 28.7882,23.9095 c -18.1465,17.8072 -34.9597,35.9473 -50.5013,54.4045 l -4.1475,0.4878 -3.6598,-2.1955 z" />
      <defs
         id="defs58">
        <linearGradient
           id="grad4">
          <stop
             id="stop52"
             stop-opacity="1.0000"
             stop-color="#5b9d5f"
             offset="0%" />
          <stop
             id="stop54"
             stop-opacity="1.0000"
             stop-color="#8eaa38"
             offset="100%" />
        </linearGradient>
        <linearGradient
           gradientUnits="userSpaceOnUse"
           gradientTransform="scale(1.1107322,0.90030703)"
           y2="715.8194"
           x2="842.74353"
           y1="637.45709"
           x1="842.74353"
           id="grad5"
           xlink:href="#grad4" />
      </defs>
      <path
         id="path60"
         style="fill:url(#grad5);stroke:#1b1918;stroke-width:0.56690001;stroke-linecap:butt;stroke-linejoin:miter;stroke-dasharray:none"
         d="m 941.4288,632.6423 43.6632,-33.7268 20.981,-14.8824 12.9911,-7.8672 3.2937,-1.5859 -0.9147,1.4946 -3.4771,4.2388 -39.3995,31.8994 -26.5928,23.1764 -6.8308,7.5629 -3.8423,1.2208 -2.9884,-0.0608 -1.5251,-2.0738 -0.427,-2.2563 2.3864,-4.2499 z" />
      <defs
         id="defs70">
        <linearGradient
           id="grad6">
          <stop
             id="stop62"
             stop-opacity="1.0000"
             stop-color="#a17785"
             offset="0.0000%" />
          <stop
             id="stop64"
             stop-opacity="1.0000"
             stop-color="#af9f63"
             offset="57.0000%" />
          <stop
             id="stop66"
             stop-opacity="1.0000"
             stop-color="#7da95e"
             offset="100.0000%" />
        </linearGradient>
        <linearGradient
           gradientUnits="userSpaceOnUse"
           gradientTransform="scale(0.8899512,1.1236571)"
           y2="521.60974"
           x2="1069.0026"
           y1="433.64124"
           x1="1069.0026"
           id="grad7"
           xlink:href="#grad6" />
      </defs>
      <path
         id="path72"
         style="fill:url(#grad7);stroke:#1b1918;stroke-width:0.56690001;stroke-linecap:butt;stroke-linejoin:miter;stroke-dasharray:none"
         d="m 997.6673,500.0576 2.3172,-9.3923 1.4643,-3.0503 2.8049,0.9765 8.0516,3.7815 c 0,0 9.148,4.2692 9.8801,4.757 0.7321,0.4877 6.8317,2.3181 6.8317,3.2936 0,0.9756 1.0972,0.8548 -0.6105,3.6598 -1.7076,2.8049 -7.8063,10.6122 -7.8063,10.6122 l -14.0285,18.176 -10.6131,15.2475 -6.709,13.6624 -5.0014,10.9783 -2.6832,8.7837 -0.8539,3.5371 -2.8059,0.7321 -4.2692,-1.7077 -9.5149,-4.7579 -6.8308,-3.0493 -4.0258,-4.0258 -1.586,-4.1475 5.124,-7.3186 14.3937,-17.0778 13.1746,-17.1995 7.8064,-13.419 z" />
      <defs
         id="defs82">
        <linearGradient
           id="grad8">
          <stop
             id="stop74"
             stop-opacity="1.0000"
             stop-color="#a07c80"
             offset="0.0000%" />
          <stop
             id="stop76"
             stop-opacity="1.0000"
             stop-color="#abb24b"
             offset="51.0000%" />
          <stop
             id="stop78"
             stop-opacity="1.0000"
             stop-color="#7aab50"
             offset="100.0000%" />
        </linearGradient>
        <linearGradient
           gradientUnits="userSpaceOnUse"
           gradientTransform="scale(0.84898337,1.1778794)"
           y2="415.98068"
           x2="1183.3888"
           y1="362.68073"
           x1="1183.3888"
           id="grad9"
           xlink:href="#grad8" />
      </defs>
      <path
         id="path84"
         style="fill:url(#grad9);stroke:#1b1918;stroke-width:0.56690001;stroke-linecap:butt;stroke-linejoin:miter;stroke-dasharray:none"
         d="m 1030.2379,489.6916 c -0.7321,0 -9.2715,-0.9756 -9.2715,-0.9756 l -9.3923,-4.2701 -6.5873,-5.2448 1.5859,-8.6611 7.0752,-8.295 5.3674,-8.6611 5.8552,-13.052 2.6832,-8.5394 1.586,-4.391 3.5371,-0.1217 7.9289,3.7815 7.5639,4.0249 1.4633,4.0257 -1.4633,6.2213 -4.3919,10.1244 -5.3674,10.4905 -2.9276,7.3195 -1.8294,6.709 -0.6104,5.2457 z" />
      <defs
         id="defs94">
        <linearGradient
           id="grad10">
          <stop
             id="stop86"
             stop-opacity="1.0000"
             stop-color="#a78d98"
             offset="0.0000%" />
          <stop
             id="stop88"
             stop-opacity="1.0000"
             stop-color="#b3bd5a"
             offset="43.0000%" />
          <stop
             id="stop90"
             stop-opacity="1.0000"
             stop-color="#83af5a"
             offset="100.0000%" />
        </linearGradient>
        <linearGradient
           gradientUnits="userSpaceOnUse"
           gradientTransform="scale(0.48864034,2.046495)"
           y2="210.2536"
           x2="2116.5144"
           y1="145.17369"
           x1="2116.5144"
           id="grad11"
           xlink:href="#grad10" />
      </defs>
      <path
         id="path96"
         style="fill:url(#grad11);stroke:#1b1918;stroke-width:0.56690001;stroke-linecap:butt;stroke-linejoin:miter;stroke-dasharray:none"
         d="m 1054.0257,425.7731 -0.4878,4.1475 -3.0493,-0.8539 -4.7579,-3.4153 -7.0751,-4.6353 -4.1476,-3.2937 0.6105,-8.295 5.3674,-18.7855 4.1466,-28.5439 5.124,-36.2294 0.9755,-17.5656 -0.4878,-7.5638 -0.7321,-3.2927 c 0,0 3.089,0.5191 3.4154,1.2189 10.9036,23.3904 15.3756,39.134 11.3452,78.4367 l -3.1719,19.6393 -5.2457,18.5412 z" />
      <path
         id="path98"
         style="fill:#5b9d5f;fill-rule:evenodd;stroke:#1b1918;stroke-width:0.56690001;stroke-linecap:butt;stroke-linejoin:miter;stroke-dasharray:none"
         d="m 901.1746,623.392 6.3429,-28.3004 2.9276,-19.2733 -0.2434,-17.0778 -0.4887,-8.0507 -0.9756,-7.3194 3.4154,7.8072 0.4269,3.1102 0.5487,13.4181 1.4034,4.9405 2.2563,-7.0751 2.3181,-21.348 -0.1226,-22.933 -1.0364,-11.0392 -0.7322,-6.2821 c 0,0 3.0503,1.2199 3.9041,2.6224 0.8539,1.4025 4.2692,9.6984 4.391,10.7349 0.1217,1.0364 1.8275,18.2977 1.8275,18.2977 l -0.2443,17.6873 -0.1218,3.7814 1.586,-0.9755 2.6833,-3.172 2.5615,-9.2705 0.9765,-6.7091 0.3651,-10.6131 -0.6095,-4.0249 3.4154,3.0493 1.8303,7.3195 1.0973,11.466 -0.8538,16.3457 -3.9032,10.1254 -11.9547,18.9072 -5.4892,7.4412 -4.757,9.0262 -4.1475,6.5873 -3.2937,5.3674 z" />
      <path
         id="path100"
         style="fill:#5b9d5f;fill-rule:evenodd;stroke:#1b1918;stroke-width:0.56690001;stroke-linecap:butt;stroke-linejoin:miter;stroke-dasharray:none"
         d="m 991.6231,579.7832 v -3.0493 l 3.6597,-10.6131 7.8063,-10.7339 10.0027,-9.5149 8.1734,-5.977 8.0506,-5.0013 4.6353,-1.7086 -4.6353,4.8796 -6.4647,6.2213 -7.5629,9.1489 -9.1488,10.6122 -7.0751,9.5149 -4.1475,3.9041 z" />
      <path
         id="path102"
         style="fill:#5b9d5f;fill-rule:evenodd;stroke:#1b1918;stroke-width:0.56690001;stroke-linecap:butt;stroke-linejoin:miter;stroke-dasharray:none"
         d="m 955.6353,553.9199 c 6.7053,-33.5978 9.5444,-66.35 8.7828,-98.3194 4.011,19.3636 7.0198,39.0841 6.0737,60.0374 -0.9746,21.5702 -2.8658,21.218 -14.8565,38.282 z" />
      <path
         id="path104"
         style="fill:#5b9d5f;fill-rule:evenodd;stroke:#1b1918;stroke-width:0.56690001;stroke-linecap:butt;stroke-linejoin:miter;stroke-dasharray:none"
         d="m 991.743,492.6837 c -9.4209,-23.2262 -19.5269,-44.6083 -32.2046,-59.0398 10.5717,6.0009 18.7118,15.7842 26.3494,26.3484 -1.0005,-21.2677 -6.0729,-42.0818 -12.9303,-62.6995 0.2674,-0.2674 0.8252,0.1983 1.0557,0.6612 13.5795,27.2667 30.1575,53.4584 17.7298,94.7297 z" />
      <path
         id="path106"
         style="fill:#5b9d5f;fill-rule:evenodd;stroke:#1b1918;stroke-width:0.56690001;stroke-linecap:butt;stroke-linejoin:miter;stroke-dasharray:none"
         d="m 1038.0295,492.9437 c 8.8436,-20.6804 24.5789,-33.8071 47.0859,-39.523 l -17.7777,14.922 21.1931,-1.7474 c -18.1557,6.1402 -34.9486,15.0041 -50.5013,26.3484 z" />
      <path
         id="path108"
         style="fill:#5b9d5f;fill-rule:evenodd;stroke:#1b1918;stroke-width:0.56690001;stroke-linecap:butt;stroke-linejoin:miter;stroke-dasharray:none"
         d="m 1051.2165,450.582 0.2727,-3.0371 c 4.8359,-10.7818 6.7821,-13.7223 15.8101,-21.9373 7.1629,-6.5179 14.02,-10.5997 25.473,-16.3649 l 4.7695,-1.2873 -5.053,4.4457 -6.9951,5.6182 -8.3507,8.436 -10.0612,9.7516 -7.8976,8.8441 -4.48,3.5176 z" />
      <path
         id="path110"
         style="fill:#5b9d5f;fill-rule:evenodd;stroke:#1b1918;stroke-width:0.56690001;stroke-linecap:butt;stroke-linejoin:miter;stroke-dasharray:none"
         d="m 1069.1675,387.1627 c 11.5654,-11.8799 23.8224,-18.5561 35.1899,-24.2351 -7.9743,1.0393 -16.1335,1.0997 -23.4478,5.6663 5.9178,-12.7799 14.218,-24.2664 23.562,-35.1883 -0.098,-0.2302 -0.5548,-0.0836 -0.812,0.1422 -15.1214,13.3186 -31.8107,25.2297 -34.4921,53.6149 z" />
      <path
         id="path112"
         style="fill:#5b9d5f;fill-rule:evenodd;stroke:#1b1918;stroke-width:0.56690001;stroke-linecap:butt;stroke-linejoin:miter;stroke-dasharray:none"
         d="m 1029.8652,418.0289 1.3368,-2.3243 c 1.9606,-10.2038 2.0437,-13.3033 -0.3096,-23.7751 -1.8671,-8.3085 -4.7437,-14.7086 -10.0795,-24.6407 l -2.7842,-3.3344 1.3941,5.7515 2.2003,7.576 1.7541,10.289 2.3215,12.0997 1.2218,10.3542 1.45,4.794 z" />
      <path
         id="path114"
         style="fill:#5b9d5f;fill-rule:evenodd;stroke:#1b1918;stroke-width:0.56690001;stroke-linecap:butt;stroke-linejoin:miter;stroke-dasharray:none"
         d="m 1036.8679,359.8847 0.9762,-2.7626 c 0.086,-11.3541 -0.4384,-14.7016 -5.0414,-25.4893 -3.6521,-8.5591 -8.0112,-14.8676 -15.7126,-24.4846 l -3.6525,-3.0319 2.6373,5.9048 3.8652,7.7061 3.9229,10.7099 4.8913,12.5435 3.3637,10.8855 2.5077,4.8648 z" />
      <path
         id="path116"
         style="fill:#5b9d5f;fill-rule:evenodd;stroke:#1b1918;stroke-width:0.56690001;stroke-linecap:butt;stroke-linejoin:miter;stroke-dasharray:none"
         d="m 1069.1341,334.0415 -0.7847,-2.0214 c -0.3207,-8.3965 -0.01,-10.8844 3.1521,-18.9682 2.5076,-6.4138 5.5892,-11.1787 11.0681,-18.4666 l 2.6331,-2.3254 -1.8171,4.4274 -2.6846,5.7876 -2.6593,8.0108 -3.334,9.389 -2.2417,8.128 -1.7448,3.6553 z" />
      <path
         id="path118"
         style="fill:#5b9d5f;fill-rule:evenodd;stroke:#1b1918;stroke-width:0.56690001;stroke-linecap:butt;stroke-linejoin:miter;stroke-dasharray:none"
         d="m 1045.3656,331.7188 c 2.4862,-16.0619 -2.1418,-30.1279 -13.7558,-42.2397 l 5.1937,15.9478 -12.3261,-9.176 c 8.7839,10.7078 15.6906,22.5646 20.8882,35.4679 z" />
    </g>
    <path
       id="path121"
       style="fill:#00378b;fill-rule:evenodd"
       d="m 126.7576,273.2391 118.5682,-0.4878 -28.8168,83.6095 c -3.9299,11.4025 -1.3683,28.14 3.9558,40.2202 3.1175,7.0732 1.8238,3.6791 11.1986,4.497 h 150.2841 l -26.8371,90.2678 -171.195,-3.1535 c -14.5513,-0.2684 -22.8648,-0.9701 -36.9624,-6.3006 -33.7205,-12.7551 -49.6346,-39.3829 -49.6743,-78.3721 -0.0203,-20.2184 3.9253,-33.5452 8.9728,-52.6525 z" />
    <g
       id="Layer1003" />
    <g
       id="Layer1004">
      <defs
         id="defs132">
        <linearGradient
           id="grad12">
          <stop
             id="stop124"
             stop-opacity="1.0000"
             stop-color="#ab417f"
             offset="0.0000%" />
          <stop
             id="stop126"
             stop-opacity="1.0000"
             stop-color="#b1a960"
             offset="57.0000%" />
          <stop
             id="stop128"
             stop-opacity="1.0000"
             stop-color="#80ae56"
             offset="100.0000%" />
        </linearGradient>
        <linearGradient
           gradientUnits="userSpaceOnUse"
           gradientTransform="scale(0.98681521,1.0133609)"
           y2="644.27252"
           x2="476.80685"
           y1="565.79712"
           x1="476.80685"
           id="grad13"
           xlink:href="#grad12" />
      </defs>
      <path
         id="path134"
         style="fill:url(#grad13);stroke:#1b1918;stroke-width:0.56690001;stroke-linecap:butt;stroke-linejoin:miter;stroke-dasharray:none"
         d="M 547.5491,634.7788 C 526.5524,612.7623 510.9712,592.5513 499.731,573.786 l -28.7882,23.9095 c 18.1465,17.8072 34.9597,35.9473 50.5013,54.4045 l 4.1475,0.4878 3.6598,-2.1955 z" />
      <defs
         id="defs142">
        <linearGradient
           id="grad14">
          <stop
             id="stop136"
             stop-opacity="1.0000"
             stop-color="#5b9d5f"
             offset="0%" />
          <stop
             id="stop138"
             stop-opacity="1.0000"
             stop-color="#8eaa38"
             offset="100%" />
        </linearGradient>
        <linearGradient
           gradientUnits="userSpaceOnUse"
           gradientTransform="scale(1.1107315,0.90030763)"
           y2="715.81891"
           x2="379.66895"
           y1="637.45667"
           x1="379.66895"
           id="grad15"
           xlink:href="#grad14" />
      </defs>
      <path
         id="path144"
         style="fill:url(#grad15);stroke:#1b1918;stroke-width:0.56690001;stroke-linecap:butt;stroke-linejoin:miter;stroke-dasharray:none"
         d="m 503.3834,632.6423 -43.6632,-33.7268 -20.981,-14.8824 -12.9912,-7.8672 -3.2936,-1.5859 0.9147,1.4946 3.4771,4.2388 39.3995,31.8994 26.5928,23.1764 6.8307,7.5629 3.8423,1.2208 2.9885,-0.0608 1.5251,-2.0738 0.4269,-2.2563 -2.3863,-4.2499 z" />
      <defs
         id="defs154">
        <linearGradient
           id="grad16">
          <stop
             id="stop146"
             stop-opacity="1.0000"
             stop-color="#a17785"
             offset="0.0000%" />
          <stop
             id="stop148"
             stop-opacity="1.0000"
             stop-color="#af9f63"
             offset="57.0000%" />
          <stop
             id="stop150"
             stop-opacity="1.0000"
             stop-color="#7da95e"
             offset="100.0000%" />
        </linearGradient>
        <linearGradient
           gradientUnits="userSpaceOnUse"
           gradientTransform="scale(0.88995072,1.1236577)"
           y2="521.6095"
           x2="466.50266"
           y1="433.64099"
           x1="466.50266"
           id="grad17"
           xlink:href="#grad16" />
      </defs>
      <path
         id="path156"
         style="fill:url(#grad17);stroke:#1b1918;stroke-width:0.56690001;stroke-linecap:butt;stroke-linejoin:miter;stroke-dasharray:none"
         d="m 447.1449,500.0576 -2.3172,-9.3923 -1.4643,-3.0503 -2.8049,0.9765 -8.0516,3.7815 c 0,0 -9.148,4.2692 -9.8801,4.757 -0.7321,0.4877 -6.8317,2.3181 -6.8317,3.2936 0,0.9756 -1.0972,0.8548 0.6104,3.6598 1.7077,2.8049 7.8064,10.6122 7.8064,10.6122 l 14.0285,18.176 10.6131,15.2475 6.709,13.6624 5.0014,10.9783 2.6832,8.7837 0.8539,3.5371 2.8059,0.7321 4.2692,-1.7077 9.5149,-4.7579 6.8308,-3.0493 4.0258,-4.0258 1.5859,-4.1475 -5.1239,-7.3186 -14.3937,-17.0778 -13.1747,-17.1995 -7.8063,-13.419 z" />
      <defs
         id="defs166">
        <linearGradient
           id="grad18">
          <stop
             id="stop158"
             stop-opacity="1.0000"
             stop-color="#a07c80"
             offset="0.0000%" />
          <stop
             id="stop160"
             stop-opacity="1.0000"
             stop-color="#abb24b"
             offset="51.0000%" />
          <stop
             id="stop162"
             stop-opacity="1.0000"
             stop-color="#7aab50"
             offset="100.0000%" />
        </linearGradient>
        <linearGradient
           gradientUnits="userSpaceOnUse"
           gradientTransform="scale(0.84898339,1.1778793)"
           y2="415.98068"
           x2="465.12573"
           y1="362.68073"
           x1="465.12573"
           id="grad19"
           xlink:href="#grad18" />
      </defs>
      <path
         id="path168"
         style="fill:url(#grad19);stroke:#1b1918;stroke-width:0.56690001;stroke-linecap:butt;stroke-linejoin:miter;stroke-dasharray:none"
         d="m 414.5743,489.6916 c 0.7321,0 9.2715,-0.9756 9.2715,-0.9756 l 9.3923,-4.2701 6.5873,-5.2448 -1.586,-8.6611 -7.0751,-8.295 -5.3674,-8.6611 -5.8552,-13.052 -2.6832,-8.5394 -1.586,-4.391 -3.5371,-0.1217 -7.929,3.7815 -7.5638,4.0249 -1.4633,4.0257 1.4633,6.2213 4.3919,10.1244 5.3674,10.4905 2.9276,7.3195 1.8294,6.709 0.6104,5.2457 z" />
      <defs
         id="defs178">
        <linearGradient
           id="grad20">
          <stop
             id="stop170"
             stop-opacity="1.0000"
             stop-color="#a78d98"
             offset="0.0000%" />
          <stop
             id="stop172"
             stop-opacity="1.0000"
             stop-color="#b3bd5a"
             offset="43.0000%" />
          <stop
             id="stop174"
             stop-opacity="1.0000"
             stop-color="#83af5a"
             offset="100.0000%" />
        </linearGradient>
        <linearGradient
           gradientUnits="userSpaceOnUse"
           gradientTransform="scale(0.48864021,2.0464955)"
           y2="210.25356"
           x2="775.20667"
           y1="145.17365"
           x1="775.20667"
           id="grad21"
           xlink:href="#grad20" />
      </defs>
      <path
         id="path180"
         style="fill:url(#grad21);stroke:#1b1918;stroke-width:0.56690001;stroke-linecap:butt;stroke-linejoin:miter;stroke-dasharray:none"
         d="m 390.7865,425.7731 0.4878,4.1475 3.0493,-0.8539 4.7579,-3.4153 7.0751,-4.6353 4.1475,-3.2937 -0.6104,-8.295 -5.3674,-18.7855 -4.1466,-28.5439 -5.124,-36.2294 -0.9755,-17.5656 0.4878,-7.5638 0.7321,-3.2927 c 0,0 -3.089,0.5191 -3.4154,1.2189 -10.9036,23.3904 -15.3757,39.134 -11.3453,78.4367 l 3.172,19.6393 5.2457,18.5412 z" />
      <path
         id="path182"
         style="fill:#5b9d5f;fill-rule:evenodd;stroke:#1b1918;stroke-width:0.56690001;stroke-linecap:butt;stroke-linejoin:miter;stroke-dasharray:none"
         d="m 543.6376,623.392 -6.3429,-28.3004 -2.9276,-19.2733 0.2434,-17.0778 0.4887,-8.0507 0.9755,-7.3194 -3.4153,7.8072 -0.427,3.1102 -0.5486,13.4181 -1.4034,4.9405 -2.2563,-7.0751 -2.3181,-21.348 0.1226,-22.933 1.0364,-11.0392 0.7322,-6.2821 c 0,0 -3.0503,1.2199 -3.9041,2.6224 -0.8539,1.4025 -4.2692,9.6984 -4.391,10.7349 -0.1217,1.0364 -1.8275,18.2977 -1.8275,18.2977 l 0.2443,17.6873 0.1217,3.7814 -1.5859,-0.9755 -2.6833,-3.172 -2.5615,-9.2705 -0.9765,-6.7091 -0.3651,-10.6131 0.6095,-4.0249 -3.4154,3.0493 -1.8303,7.3195 -1.0973,11.466 0.8538,16.3457 3.9032,10.1254 11.9547,18.9072 5.4892,7.4412 4.757,9.0262 4.1475,6.5873 3.2936,5.3674 z" />
      <path
         id="path184"
         style="fill:#5b9d5f;fill-rule:evenodd;stroke:#1b1918;stroke-width:0.56690001;stroke-linecap:butt;stroke-linejoin:miter;stroke-dasharray:none"
         d="m 453.1891,579.7832 v -3.0493 l -3.6597,-10.6131 -7.8063,-10.7339 -10.0028,-9.5149 -8.1733,-5.977 -8.0506,-5.0013 -4.6353,-1.7086 4.6353,4.8796 6.4647,6.2213 7.5629,9.1489 9.1488,10.6122 7.0751,9.5149 4.1475,3.9041 z" />
      <path
         id="path186"
         style="fill:#5b9d5f;fill-rule:evenodd;stroke:#1b1918;stroke-width:0.56690001;stroke-linecap:butt;stroke-linejoin:miter;stroke-dasharray:none"
         d="m 489.1769,553.9199 c -6.7053,-33.5978 -9.5444,-66.35 -8.7828,-98.3194 -4.011,19.3636 -7.0198,39.0841 -6.0737,60.0374 0.9746,21.5702 2.8658,21.218 14.8565,38.282 z" />
      <path
         id="path188"
         style="fill:#5b9d5f;fill-rule:evenodd;stroke:#1b1918;stroke-width:0.56690001;stroke-linecap:butt;stroke-linejoin:miter;stroke-dasharray:none"
         d="m 453.0692,492.6837 c 9.4209,-23.2262 19.5269,-44.6083 32.2045,-59.0398 -10.5716,6.0009 -18.7117,15.7842 -26.3493,26.3484 1.0005,-21.2677 6.0728,-42.0818 12.9303,-62.6995 -0.2674,-0.2674 -0.8252,0.1983 -1.0557,0.6612 -13.5795,27.2667 -30.1575,53.4584 -17.7298,94.7297 z" />
      <path
         id="path190"
         style="fill:#5b9d5f;fill-rule:evenodd;stroke:#1b1918;stroke-width:0.56690001;stroke-linecap:butt;stroke-linejoin:miter;stroke-dasharray:none"
         d="m 406.7827,492.9437 c -8.8436,-20.6804 -24.5789,-33.8071 -47.0859,-39.523 l 17.7777,14.922 -21.1931,-1.7474 c 18.1557,6.1402 34.9486,15.0041 50.5013,26.3484 z" />
      <path
         id="path192"
         style="fill:#5b9d5f;fill-rule:evenodd;stroke:#1b1918;stroke-width:0.56690001;stroke-linecap:butt;stroke-linejoin:miter;stroke-dasharray:none"
         d="m 393.5956,450.582 -0.2726,-3.0371 c -4.836,-10.7818 -6.7821,-13.7223 -15.8101,-21.9373 -7.1629,-6.5179 -14.02,-10.5997 -25.473,-16.3649 l -4.7695,-1.2873 5.053,4.4457 6.9951,5.6182 8.3507,8.436 10.0612,9.7516 7.8976,8.8441 4.48,3.5176 z" />
      <path
         id="path194"
         style="fill:#5b9d5f;fill-rule:evenodd;stroke:#1b1918;stroke-width:0.56690001;stroke-linecap:butt;stroke-linejoin:miter;stroke-dasharray:none"
         d="m 375.6447,387.1627 c -11.5655,-11.8799 -23.8224,-18.5561 -35.1899,-24.2351 7.9743,1.0393 16.1335,1.0997 23.4478,5.6663 -5.9179,-12.7799 -14.218,-24.2664 -23.562,-35.1883 0.098,-0.2302 0.5548,-0.0836 0.812,0.1422 15.1214,13.3186 31.8107,25.2297 34.4921,53.6149 z" />
      <path
         id="path196"
         style="fill:#5b9d5f;fill-rule:evenodd;stroke:#1b1918;stroke-width:0.56690001;stroke-linecap:butt;stroke-linejoin:miter;stroke-dasharray:none"
         d="m 414.947,418.0289 -1.3368,-2.3243 c -1.9606,-10.2038 -2.0437,-13.3033 0.3096,-23.7751 1.867,-8.3085 4.7437,-14.7086 10.0795,-24.6407 l 2.7842,-3.3344 -1.3941,5.7515 -2.2004,7.576 -1.754,10.289 -2.3215,12.0997 -1.2218,10.3542 -1.45,4.794 z" />
      <path
         id="path198"
         style="fill:#5b9d5f;fill-rule:evenodd;stroke:#1b1918;stroke-width:0.56690001;stroke-linecap:butt;stroke-linejoin:miter;stroke-dasharray:none"
         d="m 407.9443,359.8847 -0.9762,-2.7626 c -0.0861,-11.3541 0.4384,-14.7016 5.0414,-25.4893 3.6521,-8.5591 8.0112,-14.8676 15.7126,-24.4846 l 3.6525,-3.0319 -2.6373,5.9048 -3.8652,7.7061 -3.9229,10.7099 -4.8913,12.5435 -3.3637,10.8855 -2.5077,4.8648 z" />
      <path
         id="path200"
         style="fill:#5b9d5f;fill-rule:evenodd;stroke:#1b1918;stroke-width:0.56690001;stroke-linecap:butt;stroke-linejoin:miter;stroke-dasharray:none"
         d="m 375.6781,334.0415 0.7847,-2.0214 c 0.3207,-8.3965 0.008,-10.8844 -3.1521,-18.9682 -2.5076,-6.4138 -5.5892,-11.1787 -11.0681,-18.4666 l -2.6331,-2.3254 1.8171,4.4274 2.6846,5.7876 2.6593,8.0108 3.334,9.389 2.2417,8.128 1.7448,3.6553 z" />
      <path
         id="path202"
         style="fill:#5b9d5f;fill-rule:evenodd;stroke:#1b1918;stroke-width:0.56690001;stroke-linecap:butt;stroke-linejoin:miter;stroke-dasharray:none"
         d="m 399.4466,331.7188 c -2.4862,-16.0619 2.1418,-30.1279 13.7558,-42.2397 l -5.1937,15.9478 12.326,-9.176 c -8.7838,10.7078 -15.6905,22.5646 -20.8881,35.4679 z" />
    </g>
    <g
       id="Layer1005">
      <path
         id="path205"
         style="fill:#00378b;fill-rule:evenodd;stroke:#ffffff;stroke-width:3.2118001;stroke-linecap:butt;stroke-linejoin:miter;stroke-dasharray:none"
         d="m -577.816,-31.6244 7.2185,-1.0921 c -0.2642,2.8204 -0.2684,4.9768 -0.0138,6.442 0.4154,2.3918 1.3304,3.5945 2.7529,3.5945 1.059,0 1.9662,-0.608 2.7193,-1.8385 0.7579,-1.2304 1.2533,-2.6542 1.4917,-4.2717 0.2258,-1.5345 0.1608,-2.9167 -0.2035,-4.1334 -0.3636,-1.2166 -1.4628,-2.3502 -3.2905,-3.4422 -2.9949,-1.7975 -4.9598,-4.2025 -5.9068,-7.2023 -0.9602,-2.9865 -1.0986,-6.802 -0.4142,-11.4464 0.4485,-3.0413 1.2305,-5.917 2.3466,-8.6266 1.1185,-2.7235 2.5073,-4.8521 4.1755,-6.4005 1.6675,-1.5483 3.7534,-2.3225 6.2572,-2.3225 3.075,0 5.209,1.4099 6.4046,4.2441 1.198,2.8198 1.4936,7.3131 0.8934,13.4788 l -7.1415,1.0228 c 0.2119,-2.6958 0.1089,-4.6589 -0.3052,-5.8756 -0.4184,-1.2298 -1.1523,-1.8385 -2.1997,-1.8385 -0.8621,0 -1.5851,0.4564 -2.1546,1.3551 -0.5689,0.8982 -0.9505,2.0041 -1.142,3.3038 -0.1384,0.9397 -0.0837,1.7831 0.1577,2.5435 0.2252,0.788 0.9482,1.5068 2.1594,2.1846 2.9944,1.7277 5.0604,3.4832 6.2,5.253 1.145,1.7693 1.8487,3.9534 2.0998,6.5805 0.254,2.6127 0.1414,5.5432 -0.3372,8.7922 -0.5604,3.8016 -1.5037,7.3124 -2.8293,10.5337 -1.3299,3.2075 -2.8776,5.654 -4.6571,7.3131 -1.7735,1.6591 -3.8227,2.4881 -6.153,2.4881 -4.0888,0 -6.6365,-1.9493 -7.6382,-5.8334 -1.0017,-3.8847 -1.1649,-8.8199 -0.49,-14.8061 z m 31.7066,-39.7446 h 7.4618 l -8.7506,59.389 h -7.4612 z m 12.8449,0 h 6.9404 l 4.1923,32.7915 4.8317,-32.7915 h 7.0241 l -8.7507,59.389 h -7.0241 l -4.1688,-32.6115 -4.8046,32.6115 h -6.991 z m 28.0302,0 h 11.0515 c 2.1732,0 3.8299,0.7327 4.9544,2.1847 1.1228,1.4652 1.9246,3.5524 2.4032,6.2758 0.4702,2.7373 0.6369,5.9032 0.4949,9.5248 -0.1355,3.6223 -0.5039,7.4516 -1.1005,11.5018 -0.9349,6.3457 -1.9517,11.267 -3.0551,14.7646 -1.0981,3.497 -2.3418,6.4282 -3.7318,8.7922 -1.3906,2.3635 -2.7373,3.9395 -4.0466,4.7275 -1.7892,1.0782 -3.3472,1.6176 -4.6691,1.6176 h -11.0515 z m 5.4475,13.4372 -4.7787,32.4315 h 1.8259 c 1.5574,0 2.7301,-0.4286 3.5145,-1.2714 0.782,-0.8573 1.5152,-2.3364 2.2021,-4.4518 0.6893,-2.1287 1.3792,-5.5571 2.0799,-10.3128 0.9271,-6.2897 1.1456,-10.5892 0.6531,-12.9117 -0.4924,-2.3225 -1.7048,-3.4838 -3.6372,-3.4838 z m 20.896,-13.4372 h 7.4611 l -8.7506,59.389 h -7.4612 z m 23.6392,35.0863 5.8051,4.8521 c -1.1011,4.5066 -2.346,8.2805 -3.7366,11.2941 -1.387,3.0274 -2.8884,5.3084 -4.515,6.8429 -1.6206,1.5345 -3.5102,2.3087 -5.6672,2.3087 -2.6211,0 -4.6173,-0.9397 -6.0061,-2.8059 -1.381,-1.8801 -2.3225,-5.1845 -2.8318,-9.8981 -0.5099,-4.7142 -0.2228,-10.7691 0.8608,-18.1238 1.446,-9.8149 3.6174,-17.3634 6.5124,-22.6441 2.8993,-5.2669 6.2849,-7.9073 10.1612,-7.9073 3.0304,0 5.1946,1.5068 6.4853,4.5343 1.2847,3.0274 1.8939,7.6724 1.8096,13.9489 l -7.0813,3.5801 c 0.0349,-1.797 -0.012,-3.1106 -0.1421,-3.9395 -0.2143,-1.3967 -0.5653,-2.4748 -1.0547,-3.2213 -0.493,-0.7603 -1.1101,-1.1336 -1.8547,-1.1336 -1.6916,0 -3.2322,1.673 -4.6198,5.0044 -1.042,2.4743 -1.9583,6.3728 -2.7385,11.6674 -0.9692,6.5804 -1.228,11.0731 -0.7765,13.5203 0.4539,2.4332 1.4116,3.6493 2.8793,3.6493 1.4231,0 2.6428,-0.9813 3.6626,-2.9583 1.0174,-1.9631 1.9655,-4.8244 2.848,-8.5706 z m 22.7766,14.5154 h -8.4243 l -2.6524,9.7873 h -7.59 l 17.8083,-59.389 h 8.139 l 0.2679,59.389 h -7.7863 z m 0.3203,-12.8569 0.5183,-21.3445 -5.7834,21.3445 z m 14.3318,-36.7448 h 22.6189 l -2.163,14.6816 h -7.596 l -6.5871,44.7074 h -7.4275 l 6.5871,-44.7074 h -7.5954 z m 19.4806,29.7363 c 1.428,-9.6909 3.6325,-17.2388 6.6172,-22.6303 2.9865,-5.4053 6.4312,-8.1011 10.3411,-8.1011 4.0051,0 6.7003,2.6542 8.0879,7.9488 1.3858,5.3084 1.3707,12.7461 -0.0367,22.2986 -1.0222,6.9399 -2.3304,12.6215 -3.9305,17.0589 -1.6007,4.4379 -3.4825,7.894 -5.6335,10.3682 -2.1575,2.4748 -4.568,3.7047 -7.2396,3.7047 -2.7114,0 -4.801,-1.0644 -6.2686,-3.193 -1.4599,-2.1431 -2.408,-5.5161 -2.8312,-10.1335 -0.425,-4.6034 -0.1283,-10.382 0.8939,-17.3213 z m 7.4221,0.041 c -0.8826,5.9862 -1.0644,10.2996 -0.5472,12.9122 0.5225,2.6127 1.5615,3.9257 3.1189,3.9257 1.5959,0 3.0293,-1.2853 4.2796,-3.8432 1.2582,-2.5711 2.3719,-7.1608 3.3513,-13.8098 0.823,-5.5854 0.9644,-9.6633 0.4305,-12.2344 -0.5376,-2.5856 -1.5863,-3.8709 -3.1551,-3.8709 -1.5008,0 -2.904,1.313 -4.1971,3.9256 -1.2979,2.6133 -2.3912,6.9537 -3.2809,12.9948 z m 37.2065,-29.7773 h 11.0521 c 2.1732,0 3.8299,0.7327 4.9544,2.1847 1.1227,1.4652 1.9246,3.5524 2.4032,6.2758 0.4702,2.7373 0.6369,5.9032 0.4948,9.5248 -0.1354,3.6223 -0.5038,7.4516 -1.1004,11.5018 -0.9349,6.3457 -1.9517,11.267 -3.0552,14.7646 -1.098,3.497 -2.3417,6.4282 -3.7323,8.7922 -1.3901,2.3635 -2.7367,3.9395 -4.0461,4.7275 -1.7891,1.0782 -3.3471,1.6176 -4.6691,1.6176 h -11.0515 z m 5.4481,13.4372 -4.7787,32.4315 h 1.8259 c 1.5573,0 2.7294,-0.4286 3.5144,-1.2714 0.782,-0.8573 1.5153,-2.3364 2.2021,-4.4518 0.6893,-2.1287 1.3792,-5.5571 2.0799,-10.3128 0.9271,-6.2897 1.1457,-10.5892 0.6532,-12.9117 -0.4924,-2.3225 -1.7048,-3.4838 -3.6373,-3.4838 z m 15.2709,16.2991 c 1.4279,-9.6909 3.6324,-17.2388 6.6171,-22.6303 2.9865,-5.4053 6.4312,-8.1011 10.3406,-8.1011 4.005,0 6.7008,2.6542 8.0884,7.9488 1.3858,5.3084 1.3707,12.7461 -0.0367,22.2986 -1.0228,6.9399 -2.3304,12.6215 -3.9311,17.0589 -1.6001,4.4379 -3.4819,7.894 -5.6329,10.3682 -2.1575,2.4748 -4.5679,3.7047 -7.2402,3.7047 -2.7108,0 -4.8003,-1.0644 -6.268,-3.193 -1.4599,-2.1431 -2.408,-5.5161 -2.8312,-10.1335 -0.425,-4.6034 -0.1282,-10.382 0.894,-17.3213 z m 7.4214,0.041 c -0.8819,5.9862 -1.0637,10.2996 -0.5466,12.9122 0.5225,2.6127 1.5616,3.9257 3.1183,3.9257 1.5965,0 3.0293,-1.2853 4.2802,-3.8432 1.2582,-2.5711 2.3713,-7.1608 3.3514,-13.8098 0.8229,-5.5854 0.9644,-9.6633 0.4304,-12.2344 -0.5382,-2.5856 -1.5863,-3.8709 -3.1551,-3.8709 -1.5008,0 -2.9046,1.313 -4.1971,3.9256 -1.2979,2.6133 -2.3911,6.9537 -3.2815,12.9948 z m 18.7643,9.9673 7.2191,-1.0921 c -0.2648,2.8204 -0.2684,4.9768 -0.0138,6.442 0.4148,2.3918 1.3298,3.5945 2.7529,3.5945 1.0584,0 1.9656,-0.608 2.7187,-1.8385 0.7579,-1.2304 1.2533,-2.6542 1.4917,-4.2717 0.2264,-1.5345 0.1614,-2.9167 -0.2029,-4.1334 -0.3642,-1.2166 -1.4634,-2.3502 -3.2905,-3.4422 -2.9955,-1.7975 -4.9604,-4.2025 -5.9074,-7.2023 -0.9602,-2.9865 -1.098,-6.802 -0.4136,-11.4464 0.4479,-3.0413 1.2299,-5.917 2.346,-8.6266 1.1185,-2.7235 2.5073,-4.8521 4.1755,-6.4005 1.6675,-1.5483 3.7534,-2.3225 6.2572,-2.3225 3.0756,0 5.209,1.4099 6.4046,4.2441 1.198,2.8198 1.4936,7.3131 0.8934,13.4788 l -7.1415,1.0228 c 0.2125,-2.6958 0.1095,-4.6589 -0.3052,-5.8756 -0.4178,-1.2298 -1.1517,-1.8385 -2.1991,-1.8385 -0.8627,0 -1.5857,0.4564 -2.1546,1.3551 -0.5695,0.8982 -0.9505,2.0041 -1.1426,3.3038 -0.1384,0.9397 -0.0831,1.7831 0.1577,2.5435 0.2252,0.788 0.9488,1.5068 2.1594,2.1846 2.9943,1.7277 5.0604,3.4832 6.2,5.253 1.145,1.7693 1.8487,3.9534 2.1004,6.5805 0.2534,2.6127 0.1408,5.5432 -0.3378,8.7922 -0.5604,3.8016 -1.5032,7.3124 -2.8294,10.5337 -1.3298,3.2075 -2.8775,5.654 -4.657,7.3131 -1.7735,1.6591 -3.8227,2.4881 -6.153,2.4881 -4.0888,0 -6.6359,-1.9493 -7.6376,-5.8334 -1.0017,-3.8847 -1.1655,-8.8199 -0.4906,-14.8061 z m 42.613,-39.7446 h 19.8973 l -1.8704,12.6908 h -12.4349 l -1.3936,9.4555 h 11.5282 l -1.7843,12.1104 h -11.5283 l -1.7229,11.6951 h 12.8045 l -1.9793,13.4372 h -20.2663 z m 24.2046,0 h 9.8083 l -1.5886,36.1368 9.0721,-36.1368 h 9.7632 l -8.7501,59.389 h -6.0838 l 6.6714,-45.2745 -11.3651,45.2745 h -5.5119 l 1.9878,-45.2745 -6.6708,45.2745 h -6.0832 z m 31.7548,0 h 12.3686 c 2.694,0 4.4783,1.5761 5.356,4.742 0.8723,3.1659 0.8807,7.6724 0.0187,13.5202 -0.8837,5.9996 -2.3099,10.7 -4.2688,14.073 -1.9613,3.3868 -4.4451,5.0736 -7.4473,5.0736 h -4.0779 l -3.2388,21.9802 h -7.4612 z m 3.7215,25.3815 h 1.8319 c 1.4448,0 2.5507,-0.6219 3.3146,-1.8524 0.764,-1.2305 1.2871,-2.8065 1.57,-4.7281 0.2752,-1.8662 0.2553,-3.4422 -0.0632,-4.7413 -0.3124,-1.2997 -1.1691,-1.9493 -2.5693,-1.9493 h -2.1287 z m 11.9341,34.0075 8.7506,-59.389 h 12.3903 c 2.2967,0 3.9841,0.484 5.0496,1.4659 1.0728,0.9674 1.7861,2.7782 2.1443,5.4047 0.3558,2.6404 0.251,5.8617 -0.307,9.6495 -0.4852,3.2905 -1.1902,6.1379 -2.1136,8.5297 -0.9205,2.4056 -1.9896,4.3404 -3.2129,5.8339 -0.7711,0.9398 -1.7608,1.7278 -2.9564,2.3496 0.7772,0.7333 1.3154,1.4521 1.6109,2.1847 0.1975,0.4834 0.4401,1.5345 0.7273,3.1244 0.2811,1.5892 0.4466,2.8197 0.4924,3.6908 l 1.0854,17.1558 h -8.4027 l -1.3027,-18.1099 c -0.1583,-2.3496 -0.3823,-3.8703 -0.6706,-4.5758 -0.4034,-0.9121 -0.9464,-1.3684 -1.6242,-1.3684 h -0.6556 l -3.544,24.0541 z m 12.6552,-35.2518 h 3.1424 c 0.3359,0 1.0378,-0.2764 2.0919,-0.8158 0.5274,-0.2347 1.0222,-0.8566 1.4792,-1.8662 0.4623,-1.0089 0.7886,-2.1563 0.98,-3.456 0.2829,-1.9216 0.2546,-3.4007 -0.0879,-4.4235 -0.3401,-1.0366 -1.1889,-1.5483 -2.5501,-1.5483 h -3.2712 z m 22.1366,-24.1372 h 19.8967 l -1.8698,12.6908 h -12.4355 l -1.3936,9.4555 h 11.5283 l -1.7844,12.1104 h -11.5282 l -1.723,11.6951 h 12.8051 l -1.9799,13.4372 h -20.2663 z m 30.7856,37.9061 1.8205,-12.3585 h 11.4945 l -3.7215,25.2563 c -2.7469,3.7053 -5.0634,6.2349 -6.9477,7.5761 -1.889,1.3407 -3.9918,2.0041 -6.3107,2.0041 -2.8571,0 -5.0099,-1.2022 -6.454,-3.6078 -1.4454,-2.3917 -2.3123,-5.9724 -2.6037,-10.7276 -0.2926,-4.742 0.0193,-10.2021 0.9253,-16.3539 0.9554,-6.4835 2.3279,-12.1104 4.1158,-16.9071 1.7862,-4.7835 3.907,-8.419 6.3632,-10.9076 1.9125,-1.9216 4.2489,-2.8752 7.0048,-2.8752 2.6554,0 4.5565,0.5942 5.6973,1.7831 1.1468,1.189 1.9686,3.0275 2.4682,5.53 0.4991,2.5019 0.6881,5.6678 0.5611,9.4971 l -7.6273,3.1798 c 0.0349,-2.2533 -0.2089,-3.9816 -0.7393,-5.1706 -0.5291,-1.2028 -1.3376,-1.7969 -2.4357,-1.7969 -1.6242,0 -3.1292,1.396 -4.5101,4.1887 -1.3804,2.7926 -2.514,7.2161 -3.4037,13.2572 -0.9452,6.4143 -1.1342,11.0039 -0.5593,13.755 0.5695,2.7512 1.7326,4.1333 3.4802,4.1333 0.8289,0 1.6615,-0.2901 2.5055,-0.8843 0.838,-0.5948 1.8493,-1.6037 3.0316,-3.0136 l 0.8187,-5.5576 z m 28.9784,11.6956 h -8.4249 l -2.6518,9.7873 h -7.59 l 17.8083,-59.389 h 8.139 l 0.2679,59.389 h -7.7863 z m 0.3203,-12.8569 0.5177,-21.3445 -5.7828,21.3445 z m 18.4266,-36.7448 h 11.0514 c 2.1739,0 3.83,0.7327 4.9551,2.1847 1.1227,1.4652 1.9246,3.5524 2.4026,6.2758 0.4707,2.7373 0.6369,5.9032 0.4954,9.5248 -0.136,3.6223 -0.5039,7.4516 -1.101,11.5018 -0.9349,6.3457 -1.9517,11.267 -3.0552,14.7646 -1.0974,3.497 -2.3418,6.4282 -3.7318,8.7922 -1.39,2.3635 -2.7373,3.9395 -4.046,4.7275 -1.7891,1.0782 -3.3471,1.6176 -4.6697,1.6176 H -88.029 Z m 5.4474,13.4372 -4.778,32.4315 h 1.8258 c 1.5574,0 2.7295,-0.4286 3.5145,-1.2714 0.782,-0.8573 1.5152,-2.3364 2.2021,-4.4518 0.6887,-2.1287 1.3792,-5.5571 2.0799,-10.3128 0.9265,-6.2897 1.1456,-10.5892 0.6532,-12.9117 -0.4924,-2.3225 -1.7049,-3.4838 -3.6373,-3.4838 z m 15.2715,16.2991 c 1.428,-9.6909 3.6319,-17.2388 6.6166,-22.6303 2.9871,-5.4053 6.4311,-8.1011 10.3411,-8.1011 4.0051,0 6.7003,2.6542 8.0879,7.9488 1.3858,5.3084 1.3713,12.7461 -0.0361,22.2986 -1.0228,6.9399 -2.3304,12.6215 -3.9311,17.0589 -1.6007,4.4379 -3.482,7.894 -5.6335,10.3682 -2.157,2.4748 -4.568,3.7047 -7.2396,3.7047 -2.7108,0 -4.8004,-1.0644 -6.268,-3.193 -1.4599,-2.1431 -2.4086,-5.5161 -2.8312,-10.1335 -0.4256,-4.6034 -0.1289,-10.382 0.8939,-17.3213 z m 7.4215,0.041 c -0.882,5.9862 -1.0638,10.2996 -0.5466,12.9122 0.5225,2.6127 1.5609,3.9257 3.1183,3.9257 1.5965,0 3.0293,-1.2853 4.2802,-3.8432 1.2582,-2.5711 2.3713,-7.1608 3.3507,-13.8098 0.823,-5.5854 0.9644,-9.6633 0.4305,-12.2344 -0.5376,-2.5856 -1.5863,-3.8709 -3.1545,-3.8709 -1.5014,0 -2.9046,1.313 -4.1971,3.9256 -1.2979,2.6133 -2.3912,6.9537 -3.2815,12.9948 z m 18.7637,9.9673 7.2191,-1.0921 c -0.2643,2.8204 -0.2685,4.9768 -0.0138,6.442 0.4154,2.3918 1.3304,3.5945 2.7529,3.5945 1.0589,0 1.9661,-0.608 2.7186,-1.8385 0.7586,-1.2304 1.254,-2.6542 1.4924,-4.2717 0.2257,-1.5345 0.1607,-2.9167 -0.2035,-4.1334 -0.3636,-1.2166 -1.4628,-2.3502 -3.2905,-3.4422 -2.9949,-1.7975 -4.9599,-4.2025 -5.9068,-7.2023 -0.9608,-2.9865 -1.0987,-6.802 -0.4142,-11.4464 0.4479,-3.0413 1.2305,-5.917 2.3466,-8.6266 1.1179,-2.7235 2.5073,-4.8521 4.1749,-6.4005 1.6675,-1.5483 3.754,-2.3225 6.2577,-2.3225 3.075,0 5.2091,1.4099 6.4047,4.2441 1.1974,2.8198 1.4935,7.3131 0.8928,13.4788 l -7.1409,1.0228 c 0.2119,-2.6958 0.1089,-4.6589 -0.3053,-5.8756 -0.4184,-1.2298 -1.1522,-1.8385 -2.1997,-1.8385 -0.8626,0 -1.585,0.4564 -2.1545,1.3551 -0.5689,0.8982 -0.9506,2.0041 -1.142,3.3038 -0.1385,0.9397 -0.0837,1.7831 0.1577,2.5435 0.2252,0.788 0.9482,1.5068 2.1594,2.1846 2.9943,1.7277 5.0604,3.4832 6.2,5.253 1.145,1.7693 1.8481,3.9534 2.0997,6.5805 0.2541,2.6127 0.1415,5.5432 -0.3377,8.7922 -0.5598,3.8016 -1.5032,7.3124 -2.8288,10.5337 -1.3298,3.2075 -2.8781,5.654 -4.657,7.3131 -1.7735,1.6591 -3.8227,2.4881 -6.1531,2.4881 -4.0893,0 -6.6364,-1.9493 -7.6381,-5.8334 -1.0017,-3.8847 -1.1649,-8.8199 -0.4906,-14.8061 z m 42.681,-39.7446 h 6.9405 l 4.1923,32.7915 4.8316,-32.7915 h 7.0241 L 24.5447,-11.98 H 17.5206 L 13.3517,-44.5915 8.5472,-11.98 h -6.991 z m 22.6063,29.7363 c 1.4279,-9.6909 3.6324,-17.2388 6.6171,-22.6303 2.9866,-5.4053 6.4312,-8.1011 10.3412,-8.1011 4.0051,0 6.7002,2.6542 8.0878,7.9488 1.3858,5.3084 1.3708,12.7461 -0.0367,22.2986 -1.0222,6.9399 -2.3303,12.6215 -3.9305,17.0589 -1.6007,4.4379 -3.4825,7.894 -5.6335,10.3682 -2.1575,2.4748 -4.5679,3.7047 -7.2396,3.7047 -2.7114,0 -4.8009,-1.0644 -6.2686,-3.193 -1.4598,-2.1431 -2.408,-5.5161 -2.8312,-10.1335 -0.425,-4.6034 -0.1282,-10.382 0.894,-17.3213 z m 7.422,0.041 c -0.8825,5.9862 -1.0643,10.2996 -0.5472,12.9122 0.5225,2.6127 1.5616,3.9257 3.119,3.9257 1.5958,0 3.0292,-1.2853 4.2796,-3.8432 1.2581,-2.5711 2.3718,-7.1608 3.3513,-13.8098 0.8229,-5.5854 0.9644,-9.6633 0.4304,-12.2344 -0.5376,-2.5856 -1.5863,-3.8709 -3.1551,-3.8709 -1.5007,0 -2.904,1.313 -4.1971,3.9256 -1.2979,2.6133 -2.3911,6.9537 -3.2809,12.9948 z m 47.9678,5.309 5.8051,4.8521 c -1.101,4.5066 -2.346,8.2805 -3.7366,11.2941 -1.387,3.0274 -2.8884,5.3084 -4.515,6.8429 -1.6206,1.5345 -3.5102,2.3087 -5.6672,2.3087 -2.6211,0 -4.6167,-0.9397 -6.0061,-2.8059 -1.381,-1.8801 -2.3225,-5.1845 -2.8318,-9.8981 -0.5099,-4.7142 -0.2228,-10.7691 0.8608,-18.1238 1.446,-9.8149 3.6174,-17.3634 6.5124,-22.6441 2.8993,-5.2669 6.2849,-7.9073 10.1612,-7.9073 3.0304,0 5.1946,1.5068 6.4853,4.5343 1.2847,3.0274 1.8939,7.6724 1.8096,13.9489 l -7.0813,3.5801 c 0.0355,-1.797 -0.012,-3.1106 -0.1421,-3.9395 -0.2143,-1.3967 -0.5652,-2.4748 -1.0547,-3.2213 -0.493,-0.7603 -1.1101,-1.1336 -1.8547,-1.1336 -1.6916,0 -3.2322,1.673 -4.6198,5.0044 -1.042,2.4743 -1.9583,6.3728 -2.7385,11.6674 -0.9692,6.5804 -1.228,11.0731 -0.7765,13.5203 0.4539,2.4332 1.4117,3.6493 2.8793,3.6493 1.4232,0 2.6428,-0.9813 3.6626,-2.9583 1.0174,-1.9631 1.9655,-4.8244 2.848,-8.5706 z m 9.9577,-5.35 c 1.4279,-9.6909 3.6325,-17.2388 6.6172,-22.6303 2.9865,-5.4053 6.4311,-8.1011 10.3411,-8.1011 4.0045,0 6.7002,2.6542 8.0878,7.9488 1.3858,5.3084 1.3708,12.7461 -0.0367,22.2986 -1.0228,6.9399 -2.3303,12.6215 -3.9304,17.0589 -1.6007,4.4379 -3.4826,7.894 -5.6335,10.3682 -2.1576,2.4748 -4.568,3.7047 -7.2403,3.7047 -2.7108,0 -4.8003,-1.0644 -6.268,-3.193 -1.4598,-2.1431 -2.408,-5.5161 -2.8312,-10.1335 -0.425,-4.6034 -0.1282,-10.382 0.894,-17.3213 z m 7.4214,0.041 c -0.8819,5.9862 -1.0637,10.2996 -0.5466,12.9122 0.5226,2.6127 1.5616,3.9257 3.1184,3.9257 1.5965,0 3.0292,-1.2853 4.2802,-3.8432 1.2582,-2.5711 2.3712,-7.1608 3.3513,-13.8098 0.8229,-5.5854 0.9644,-9.6633 0.4304,-12.2344 -0.5382,-2.5856 -1.5862,-3.8709 -3.155,-3.8709 -1.5008,0 -2.9047,1.313 -4.1972,3.9256 -1.2979,2.6133 -2.3911,6.9537 -3.2815,12.9948 z m 25.8306,-29.7773 h 9.8077 l -1.588,36.1368 9.0721,-36.1368 h 9.7632 l -8.7507,59.389 h -6.0832 L 150.4051,-57.2545 139.04,-11.98 h -5.5119 l 1.9878,-45.2745 -6.6708,45.2745 h -6.0832 z m 31.7885,0 h 19.8966 l -1.8698,12.6908 h -12.4354 l -1.3931,9.4555 h 11.5277 l -1.7843,12.1104 h -11.5283 l -1.7229,11.6951 h 12.8051 l -1.98,13.4372 h -20.2663 z m 11.8214,-15.6766 h 5.7467 l -7.0945,12.1104 h -3.1924 z m 3.8005,75.0656 8.7506,-59.389 h 12.3903 c 2.2967,0 3.9841,0.484 5.0496,1.4659 1.0728,0.9674 1.7861,2.7782 2.1443,5.4047 0.3558,2.6404 0.251,5.8617 -0.307,9.6495 -0.4852,3.2905 -1.1902,6.1379 -2.1142,8.5297 -0.9199,2.4056 -1.989,4.3404 -3.2123,5.8339 -0.7712,0.9398 -1.7608,1.7278 -2.9564,2.3496 0.7772,0.7333 1.3154,1.4521 1.6103,2.1847 0.1981,0.4834 0.4407,1.5345 0.7279,3.1244 0.2805,1.5892 0.4466,2.8197 0.4924,3.6908 l 1.0848,17.1558 h -8.4021 l -1.3033,-18.1099 c -0.1577,-2.3496 -0.3817,-3.8703 -0.6701,-4.5758 -0.4033,-0.9121 -0.9463,-1.3684 -1.6241,-1.3684 h -0.6556 l -3.5446,24.0541 z m 12.6552,-35.2518 h 3.1424 c 0.3359,0 1.0378,-0.2764 2.0919,-0.8158 0.5274,-0.2347 1.0222,-0.8566 1.4791,-1.8662 0.4624,-1.0089 0.7887,-2.1563 0.9801,-3.456 0.2829,-1.9216 0.254,-3.4007 -0.0879,-4.4235 -0.3401,-1.0366 -1.1889,-1.5483 -2.5501,-1.5483 h -3.2712 z m 32.3935,10.9491 5.8051,4.8521 c -1.1011,4.5066 -2.346,8.2805 -3.7366,11.2941 -1.387,3.0274 -2.8884,5.3084 -4.515,6.8429 -1.6206,1.5345 -3.5103,2.3087 -5.6672,2.3087 -2.6211,0 -4.6174,-0.9397 -6.0062,-2.8059 -1.381,-1.8801 -2.3225,-5.1845 -2.8318,-9.8981 -0.5099,-4.7142 -0.2227,-10.7691 0.8609,-18.1238 1.446,-9.8149 3.6174,-17.3634 6.5124,-22.6441 2.8992,-5.2669 6.2849,-7.9073 10.1611,-7.9073 3.0305,0 5.1947,1.5068 6.4854,4.5343 1.2846,3.0274 1.8938,7.6724 1.8096,13.9489 l -7.0813,3.5801 c 0.0355,-1.797 -0.0121,-3.1106 -0.1421,-3.9395 -0.2143,-1.3967 -0.5653,-2.4748 -1.0547,-3.2213 -0.4931,-0.7603 -1.1101,-1.1336 -1.8548,-1.1336 -1.6916,0 -3.2321,1.673 -4.6197,5.0044 -1.0421,2.4743 -1.9583,6.3728 -2.7385,11.6674 -0.9692,6.5804 -1.2281,11.0731 -0.7766,13.5203 0.4539,2.4332 1.4117,3.6493 2.8794,3.6493 1.4231,0 2.6427,-0.9813 3.6625,-2.9583 1.0174,-1.9631 1.9656,-4.8244 2.8481,-8.5706 z m 15.5827,-35.0863 h 7.4612 l -8.7507,59.389 h -7.4611 z m 7.4546,29.7363 c 1.4279,-9.6909 3.6324,-17.2388 6.6171,-22.6303 2.9865,-5.4053 6.4312,-8.1011 10.3412,-8.1011 4.005,0 6.7002,2.6542 8.0878,7.9488 1.3858,5.3084 1.3707,12.7461 -0.0367,22.2986 -1.0228,6.9399 -2.3304,12.6215 -3.9305,17.0589 -1.6007,4.4379 -3.4825,7.894 -5.6335,10.3682 -2.1575,2.4748 -4.5679,3.7047 -7.2402,3.7047 -2.7108,0 -4.8003,-1.0644 -6.268,-3.193 -1.4599,-2.1431 -2.408,-5.5161 -2.8312,-10.1335 -0.425,-4.6034 -0.1282,-10.382 0.894,-17.3213 z m 7.4214,0.041 c -0.8819,5.9862 -1.0637,10.2996 -0.5466,12.9122 0.5225,2.6127 1.5616,3.9257 3.1189,3.9257 1.5959,0 3.0287,-1.2853 4.2796,-3.8432 1.2582,-2.5711 2.3713,-7.1608 3.3514,-13.8098 0.8229,-5.5854 0.9644,-9.6633 0.4304,-12.2344 -0.5382,-2.5856 -1.5863,-3.8709 -3.1551,-3.8709 -1.5008,0 -2.904,1.313 -4.1971,3.9256 -1.2979,2.6133 -2.3911,6.9537 -3.2815,12.9948 z m 34.7534,-29.7773 h 7.7693 l -0.8759,42.7449 11.6427,-42.7449 h 7.5448 l -17.6849,59.389 h -8.0547 z m 34.0701,49.6017 h -8.4244 l -2.6524,9.7873 h -7.59 l 17.8083,-59.389 h 8.139 l 0.2679,59.389 h -7.7862 z m 0.3202,-12.8569 0.5183,-21.3445 -5.7834,21.3445 z m 9.6759,22.6442 8.7507,-59.389 h 12.3909 c 2.2966,0 3.984,0.484 5.049,1.4659 1.0733,0.9674 1.7867,2.7782 2.1449,5.4047 0.3558,2.6404 0.2504,5.8617 -0.3076,9.6495 -0.4846,3.2905 -1.1902,6.1379 -2.1136,8.5297 -0.9199,2.4056 -1.9896,4.3404 -3.2123,5.8339 -0.7712,0.9398 -1.7615,1.7278 -2.9564,2.3496 0.7772,0.7333 1.3153,1.4521 1.6103,2.1847 0.1981,0.4834 0.4407,1.5345 0.7272,3.1244 0.2812,1.5892 0.4473,2.8197 0.4925,3.6908 l 1.0854,17.1558 h -8.4021 l -1.3033,-18.1099 c -0.1578,-2.3496 -0.3817,-3.8703 -0.6701,-4.5758 -0.4033,-0.9121 -0.9469,-1.3684 -1.6248,-1.3684 h -0.6549 l -3.5446,24.0541 z m 12.6552,-35.2518 h 3.1425 c 0.3365,0 1.0384,-0.2764 2.0919,-0.8158 0.528,-0.2347 1.0228,-0.8566 1.4797,-1.8662 0.4624,-1.0089 0.788,-2.1563 0.9795,-3.456 0.2835,-1.9216 0.2546,-3.4007 -0.0873,-4.4235 -0.3407,-1.0366 -1.1896,-1.5483 -2.5507,-1.5483 h -3.2712 z m 22.1367,-24.1372 h 19.8967 l -1.8698,12.6908 h -12.4355 l -1.393,9.4555 h 11.5282 l -1.7843,12.1104 h -11.5283 l -1.7229,11.6951 h 12.8045 l -1.9793,13.4372 h -20.2669 z m 34.2868,0 h 7.4612 l -4.7516,32.2521 c -0.9981,6.7737 -1.9986,11.9304 -3.0076,15.4695 -1.0071,3.5247 -2.429,6.5245 -4.2651,8.9855 -1.8331,2.4471 -3.9022,3.677 -6.1988,3.677 -2.4315,0 -4.1935,-0.8151 -5.2879,-2.4327 -1.1005,-1.6176 -1.7832,-3.9816 -2.051,-7.106 -0.2697,-3.1105 -0.1331,-6.9669 0.4147,-11.5566 l 7.4419,-2.3778 c -0.372,2.5988 -0.5616,4.5342 -0.5737,5.7924 -0.0132,1.2714 0.1349,2.281 0.4389,3.069 0.2101,0.5111 0.5767,0.7603 1.1034,0.7603 0.8344,0 1.5568,-0.7603 2.1733,-2.281 0.6104,-1.5206 1.1853,-4.0924 1.7169,-7.7001 z m 12.7046,0 h 7.4612 l -8.7507,59.389 h -7.4611 z m 5.6437,39.7446 7.2192,-1.0921 c -0.2643,2.8204 -0.2685,4.9768 -0.0138,6.442 0.4147,2.3918 1.3298,3.5945 2.7529,3.5945 1.0583,0 1.9661,-0.608 2.7186,-1.8385 0.7585,-1.2304 1.2534,-2.6542 1.4918,-4.2717 0.2263,-1.5345 0.1613,-2.9167 -0.2029,-4.1334 -0.3642,-1.2166 -1.4629,-2.3502 -3.2905,-3.4422 -2.9956,-1.7975 -4.9599,-4.2025 -5.9074,-7.2023 -0.9602,-2.9865 -1.0981,-6.802 -0.4136,-11.4464 0.4479,-3.0413 1.2299,-5.917 2.3466,-8.6266 1.1179,-2.7235 2.5073,-4.8521 4.1748,-6.4005 1.6676,-1.5483 3.7535,-2.3225 6.2578,-2.3225 3.075,0 5.2085,1.4099 6.4041,4.2441 1.198,2.8198 1.4935,7.3131 0.8933,13.4788 l -7.1415,1.0228 c 0.2125,-2.6958 0.1096,-4.6589 -0.3052,-5.8756 -0.4178,-1.2298 -1.1516,-1.8385 -2.1991,-1.8385 -0.8626,0 -1.585,0.4564 -2.1545,1.3551 -0.5695,0.8982 -0.9506,2.0041 -1.142,3.3038 -0.1385,0.9397 -0.0837,1.7831 0.1571,2.5435 0.2258,0.788 0.9488,1.5068 2.16,2.1846 2.9943,1.7277 5.0598,3.4832 6.1994,5.253 1.1456,1.7693 1.8487,3.9534 2.1003,6.5805 0.2535,2.6127 0.1409,5.5432 -0.3377,8.7922 -0.5599,3.8016 -1.5032,7.3124 -2.8294,10.5337 -1.3298,3.2075 -2.8775,5.654 -4.657,7.3131 -1.7735,1.6591 -3.8227,2.4881 -6.1531,2.4881 -4.0887,0 -6.6358,-1.9493 -7.6375,-5.8334 -1.0018,-3.8847 -1.1655,-8.8199 -0.4907,-14.8061 z m 29.7243,-39.7446 h 22.6189 l -2.163,14.6816 h -7.596 l -6.5871,44.7074 h -7.4274 l 6.587,-44.7074 h -7.5954 z m 31.1685,49.6017 h -8.425 l -2.6518,9.7873 h -7.59 l 17.8083,-59.389 h 8.139 l 0.2679,59.389 h -7.7862 z m 0.3202,-12.8569 0.5178,-21.3445 -5.7828,21.3445 z M -587.7881,45.4085 h 11.0515 c 2.1732,0 3.8299,0.7326 4.9544,2.1846 1.1233,1.4653 1.9246,3.5524 2.4032,6.2759 0.4702,2.7372 0.6369,5.9031 0.4948,9.5248 -0.1354,3.6222 -0.5038,7.4515 -1.1004,11.5017 -0.9349,6.3457 -1.9517,11.267 -3.0552,14.7647 -1.0974,3.497 -2.3417,6.4281 -3.7317,8.7921 -1.3901,2.3635 -2.7373,3.9395 -4.0467,4.7275 -1.7885,1.0782 -3.3471,1.6176 -4.6691,1.6176 h -11.0515 z m 5.4475,13.4372 -4.7787,32.4314 h 1.8265 c 1.5567,0 2.7294,-0.4286 3.5144,-1.2714 0.7814,-0.8572 1.5147,-2.3364 2.2015,-4.4518 0.6893,-2.1286 1.3792,-5.557 2.0799,-10.3128 0.9271,-6.2897 1.1456,-10.5892 0.6532,-12.9117 -0.4924,-2.3225 -1.7048,-3.4837 -3.6373,-3.4837 z m 21.1307,-13.4372 h 19.8973 l -1.8705,12.6907 h -12.4354 l -1.3931,9.4556 h 11.5283 l -1.7843,12.1104 h -11.5283 l -1.7229,11.695 h 12.8045 l -1.9794,13.4372 h -20.2662 z m 59.345,37.906 1.8204,-12.3584 h 11.4946 l -3.721,25.2562 c -2.7475,3.7053 -5.064,6.2349 -6.9476,7.5762 -1.8897,1.3406 -3.9925,2.004 -6.3114,2.004 -2.857,0 -5.0098,-1.2022 -6.4534,-3.6078 -1.446,-2.3917 -2.3129,-5.9724 -2.6042,-10.7276 -0.2926,-4.7419 0.0192,-10.202 0.9258,-16.3539 0.9548,-6.4835 2.3274,-12.1104 4.1153,-16.9071 1.7861,-4.7835 3.907,-8.4189 6.3631,-10.9076 1.9132,-1.9216 4.2495,-2.8751 7.0049,-2.8751 2.6554,0 4.5565,0.5941 5.6979,1.7831 1.1462,1.1889 1.9679,3.0274 2.4676,5.5299 0.4996,2.5019 0.6881,5.6679 0.561,9.4972 l -7.6273,3.1797 c 0.0349,-2.2533 -0.2089,-3.9816 -0.7392,-5.1705 -0.5286,-1.2028 -1.3377,-1.797 -2.4351,-1.797 -1.6248,0 -3.1298,1.396 -4.5108,4.1887 -1.3804,2.7927 -2.5133,7.2161 -3.4037,13.2572 -0.9451,6.4143 -1.1341,11.0039 -0.5592,13.7551 0.5695,2.7511 1.7325,4.1333 3.4801,4.1333 0.829,0 1.6615,-0.2902 2.5055,-0.8844 0.838,-0.5947 1.8494,-1.6037 3.0317,-3.0136 l 0.8187,-5.5576 z m 22.0193,-37.906 h 19.8966 l -1.8698,12.6907 h -12.4354 l -1.3931,9.4556 h 11.5283 l -1.7849,12.1104 h -11.5277 l -1.7235,11.695 h 12.8051 l -1.98,13.4372 h -20.2663 z m 9.6645,-15.1788 h 4.7497 l 1.9415,11.6125 h -4.078 l -1.0908,-6.2072 -2.9203,6.2072 h -4.0773 z m 15.2119,15.1788 h 6.9398 l 4.1929,32.7914 4.8317,-32.7914 h 7.0241 l -8.7507,59.3889 h -7.0241 l -4.1688,-32.6114 -4.8052,32.6114 h -6.9904 z m 28.4661,0 h 19.8966 l -1.8698,12.6907 h -12.4355 l -1.393,9.4556 h 11.5283 l -1.785,12.1104 h -11.5276 l -1.7235,11.695 h 12.8051 l -1.98,13.4372 h -20.2663 z m 16.1594,59.3889 8.7507,-59.3889 h 12.3903 c 2.2966,0 3.984,0.484 5.0495,1.4658 1.0728,0.9674 1.7862,2.7783 2.1444,5.4048 0.3557,2.6403 0.251,5.8616 -0.3071,9.6494 -0.4852,3.2905 -1.1901,6.138 -2.1142,8.5297 -0.9198,2.4056 -1.989,4.3404 -3.2122,5.834 -0.7712,0.9397 -1.7609,1.7277 -2.9565,2.3496 0.7772,0.7332 1.3154,1.452 1.611,2.1846 0.1974,0.4834 0.4401,1.5345 0.7272,3.1244 0.2811,1.5893 0.4467,2.8198 0.4924,3.6909 l 1.0848,17.1557 h -8.402 l -1.3028,-18.1099 c -0.1583,-2.3496 -0.3822,-3.8703 -0.6706,-4.5758 -0.4033,-0.912 -0.9463,-1.3683 -1.6242,-1.3683 h -0.6556 l -3.5439,24.054 z m 12.6552,-35.2518 h 3.1424 c 0.336,0 1.0379,-0.2763 2.092,-0.8157 0.5273,-0.2348 1.0222,-0.8567 1.4791,-1.8662 0.4623,-1.009 0.7886,-2.1564 0.9801,-3.4561 0.2829,-1.9216 0.2546,-3.4007 -0.0879,-4.4235 -0.3402,-1.0366 -1.189,-1.5483 -2.5501,-1.5483 h -3.2713 z m 16.7747,5.5992 c 1.4279,-9.691 3.6319,-17.2388 6.6166,-22.6303 2.9871,-5.4054 6.4311,-8.1011 10.3411,-8.1011 4.0051,0 6.7002,2.6542 8.0878,7.9487 1.3858,5.3085 1.3708,12.7462 -0.0367,22.2987 -1.0222,6.9398 -2.3297,12.6215 -3.9304,17.0588 -1.6008,4.4379 -3.482,7.894 -5.6335,10.3682 -2.1576,2.4748 -4.568,3.7047 -7.2397,3.7047 -2.7114,0 -4.8009,-1.0643 -6.268,-3.193 -1.4604,-2.1431 -2.4086,-5.5161 -2.8312,-10.1334 -0.4256,-4.6035 -0.1288,-10.3821 0.894,-17.3213 z m 7.4214,0.0409 c -0.8819,5.9863 -1.0637,10.2996 -0.5466,12.9123 0.5219,2.6126 1.561,3.9256 3.1184,3.9256 1.5965,0 3.0292,-1.2853 4.2802,-3.8432 1.2582,-2.5711 2.3712,-7.1607 3.3507,-13.8098 0.8229,-5.5853 0.9644,-9.6633 0.4304,-12.2344 -0.5376,-2.5856 -1.5862,-3.8709 -3.1544,-3.8709 -1.5014,0 -2.9047,1.313 -4.1972,3.9257 -1.2985,2.6132 -2.3917,6.9537 -3.2815,12.9947 z" />
      <path
         id="path207"
         style="fill:#00378b;fill-rule:evenodd;stroke:#ffffff;stroke-width:3.2118001;stroke-linecap:butt;stroke-linejoin:miter;stroke-dasharray:none"
         d="m -354.1911,85.153 7.2192,-1.092 c -0.2643,2.8203 -0.2685,4.9767 -0.0139,6.442 0.4148,2.3917 1.3298,3.5945 2.753,3.5945 1.0583,0 1.9655,-0.608 2.7186,-1.8385 0.7579,-1.2305 1.2533,-2.6542 1.4917,-4.2718 0.2264,-1.5345 0.1614,-2.9167 -0.2028,-4.1333 -0.3643,-1.2167 -1.4629,-2.3502 -3.2906,-3.4422 -2.9955,-1.7976 -4.9598,-4.2026 -5.9074,-7.2023 -0.9602,-2.9866 -1.098,-6.802 -0.4135,-11.4464 0.4478,-3.0413 1.2298,-5.9171 2.3465,-8.6267 1.118,-2.7234 2.5074,-4.8521 4.1749,-6.4004 1.6675,-1.5484 3.7535,-2.3225 6.2578,-2.3225 3.075,0 5.2085,1.4098 6.404,4.2441 1.198,2.8197 1.4936,7.313 0.8934,13.4787 l -7.1415,1.0228 c 0.2125,-2.6958 0.1096,-4.6589 -0.3052,-5.8755 -0.4178,-1.2299 -1.1516,-1.8385 -2.1991,-1.8385 -0.8627,0 -1.5851,0.4563 -2.1546,1.3551 -0.5695,0.8982 -0.9505,2.004 -1.142,3.3037 -0.1384,0.9398 -0.0836,1.7832 0.1572,2.5435 0.2257,0.788 0.9487,1.5068 2.1599,2.1846 2.9938,1.7278 5.0598,3.4832 6.1994,5.2531 1.1456,1.7693 1.8487,3.9533 2.1004,6.5804 0.2534,2.6127 0.1408,5.5432 -0.3377,8.7922 -0.5599,3.8016 -1.5032,7.3125 -2.8294,10.5338 -1.3298,3.2074 -2.8776,5.6539 -4.6571,7.313 -1.7735,1.6592 -3.8227,2.4881 -6.153,2.4881 -4.0888,0 -6.6358,-1.9493 -7.6376,-5.8334 -1.0017,-3.8846 -1.1654,-8.8198 -0.4906,-14.8061 z m 67.4605,9.8571 h -8.4249 l -2.6518,9.7873 h -7.5906 l 17.8083,-59.3889 h 8.139 l 0.2679,59.3889 h -7.7857 z m 0.3203,-12.8569 0.5177,-21.3444 -5.7834,21.3444 z m 18.8624,-36.7447 h 7.4281 l -6.5997,44.7904 h 11.6288 l -2.151,14.5985 h -19.0562 z m 23.2576,0 h 7.4612 l -8.7507,59.3889 h -7.4611 z m 13.247,0 h 9.8083 l -1.588,36.1367 9.0715,-36.1367 h 9.7638 l -8.7507,59.3889 h -6.0831 l 6.6707,-45.2745 -11.3651,45.2745 h -5.5119 l 1.9884,-45.2745 -6.6714,45.2745 h -6.0826 z m 32.3261,0 h 19.8966 l -1.8698,12.6907 h -12.4355 l -1.393,9.4556 h 11.5277 l -1.7843,12.1104 h -11.5277 l -1.7235,11.695 h 12.8051 l -1.98,13.4372 h -20.2663 z m 24.8758,0 h 6.9404 l 4.1923,32.7914 4.8317,-32.7914 h 7.0241 l -8.7501,59.3889 h -7.0241 l -4.1688,-32.6114 -4.8052,32.6114 h -6.9904 z m 26.7865,0 h 22.6189 l -2.1636,14.6815 h -7.5954 l -6.5877,44.7074 h -7.4275 l 6.5877,-44.7074 h -7.596 z m 26.7913,0 h 7.4612 l -8.7507,59.3889 h -7.4611 z m 5.9062,-15.6767 h 5.7473 l -7.0952,12.1104 h -3.1924 z m 18.2707,50.7629 5.805,4.8521 c -1.101,4.5066 -2.346,8.2805 -3.7366,11.2941 -1.3876,3.0275 -2.8884,5.3085 -4.515,6.8429 -1.6205,1.5345 -3.5108,2.3087 -5.6672,2.3087 -2.6217,0 -4.6173,-0.9397 -6.0061,-2.8059 -1.381,-1.88 -2.3225,-5.1844 -2.8324,-9.8981 -0.5093,-4.7142 -0.2221,-10.7691 0.8615,-18.1237 1.446,-9.815 3.6168,-17.3635 6.5124,-22.6442 2.8992,-5.2669 6.2848,-7.9072 10.1611,-7.9072 3.0305,0 5.1946,1.5068 6.4847,4.5342 1.2853,3.0275 1.8945,7.6725 1.8102,13.9489 l -7.0813,3.5801 c 0.0349,-1.797 -0.0126,-3.1105 -0.142,-3.9395 -0.2144,-1.3966 -0.5653,-2.4748 -1.0547,-3.2213 -0.4931,-0.7603 -1.1101,-1.1335 -1.8554,-1.1335 -1.6916,0 -3.2321,1.6729 -4.6191,5.0044 -1.0427,2.4742 -1.9583,6.3727 -2.7385,11.6673 -0.9692,6.5805 -1.2281,11.0732 -0.7766,13.5203 0.4539,2.4333 1.4117,3.6493 2.8794,3.6493 1.4225,0 2.6427,-0.9813 3.6619,-2.9582 1.0174,-1.9631 1.9661,-4.8244 2.8487,-8.5707 z M -79.967,45.4085 h 7.4611 l -8.75,59.3889 h -7.4618 z m 7.9921,29.7363 c 1.4279,-9.691 3.6325,-17.2388 6.6172,-22.6303 2.9865,-5.4054 6.4311,-8.1011 10.3411,-8.1011 4.0045,0 6.7002,2.6542 8.0878,7.9487 1.3858,5.3085 1.3708,12.7462 -0.0367,22.2987 -1.0228,6.9398 -2.3303,12.6215 -3.9304,17.0588 -1.6007,4.4379 -3.4826,7.894 -5.6335,10.3682 -2.1576,2.4748 -4.568,3.7047 -7.2403,3.7047 -2.7108,0 -4.8003,-1.0643 -6.268,-3.193 -1.4598,-2.1431 -2.408,-5.5161 -2.8312,-10.1334 -0.425,-4.6035 -0.1282,-10.3821 0.894,-17.3213 z m 7.4214,0.0409 c -0.8819,5.9863 -1.0637,10.2996 -0.5466,12.9123 0.5226,2.6126 1.5616,3.9256 3.1184,3.9256 1.5965,0 3.0292,-1.2853 4.2802,-3.8432 1.2582,-2.5711 2.3713,-7.1607 3.3513,-13.8098 0.8229,-5.5853 0.9644,-9.6633 0.4304,-12.2344 -0.5381,-2.5856 -1.5862,-3.8709 -3.155,-3.8709 -1.5008,0 -2.9047,1.313 -4.1972,3.9257 -1.2979,2.6132 -2.3911,6.9537 -3.2815,12.9947 z m 19.3019,9.9673 7.2186,-1.092 c -0.2643,2.8203 -0.2685,4.9767 -0.0139,6.442 0.4154,2.3917 1.3304,3.5945 2.753,3.5945 1.0589,0 1.9661,-0.608 2.7192,-1.8385 0.7579,-1.2305 1.2534,-2.6542 1.4917,-4.2718 0.2258,-1.5345 0.1608,-2.9167 -0.2034,-4.1333 -0.3636,-1.2167 -1.4629,-2.3502 -3.2906,-3.4422 -2.9949,-1.7976 -4.9598,-4.2026 -5.9068,-7.2023 -0.9601,-2.9866 -1.0986,-6.802 -0.4141,-11.4464 0.4485,-3.0413 1.2304,-5.9171 2.3466,-8.6267 1.1185,-2.7234 2.5073,-4.8521 4.1754,-6.4004 1.6675,-1.5484 3.7535,-2.3225 6.2572,-2.3225 3.075,0 5.2091,1.4098 6.4046,4.2441 1.198,2.8197 1.4936,7.313 0.8934,13.4787 l -7.1415,1.0228 c 0.2119,-2.6958 0.109,-4.6589 -0.3052,-5.8755 -0.4184,-1.2299 -1.1522,-1.8385 -2.1997,-1.8385 -0.8621,0 -1.5851,0.4563 -2.1546,1.3551 -0.5689,0.8982 -0.9505,2.004 -1.142,3.3037 -0.1384,0.9398 -0.0836,1.7832 0.1578,2.5435 0.2251,0.788 0.9481,1.5068 2.1593,2.1846 2.9944,1.7278 5.0604,3.4832 6.2,5.2531 1.145,1.7693 1.8488,3.9533 2.0998,6.5804 0.254,2.6127 0.1415,5.5432 -0.3371,8.7922 -0.5605,3.8016 -1.5038,7.3125 -2.8294,10.5338 -1.3298,3.2074 -2.8776,5.6539 -4.6571,7.313 -1.7735,1.6592 -3.8227,2.4881 -6.153,2.4881 -4.0888,0 -6.6364,-1.9493 -7.6382,-5.8334 -1.0017,-3.8846 -1.1648,-8.8198 -0.49,-14.8061 z M 14.7791,45.4085 h 6.9404 l 4.1923,32.7914 4.8317,-32.7914 h 7.0241 l -8.7507,59.3889 H 21.9928 L 17.8246,72.186 13.0194,104.7974 h -6.991 z m 23.1438,29.7363 c 1.4279,-9.691 3.6325,-17.2388 6.6172,-22.6303 2.9865,-5.4054 6.4311,-8.1011 10.3411,-8.1011 4.0051,0 6.7002,2.6542 8.0878,7.9487 1.3858,5.3085 1.3708,12.7462 -0.0367,22.2987 -1.0222,6.9398 -2.3303,12.6215 -3.9304,17.0588 -1.6007,4.4379 -3.4826,7.894 -5.6335,10.3682 -2.1576,2.4748 -4.568,3.7047 -7.2397,3.7047 -2.7114,0 -4.8009,-1.0643 -6.268,-3.193 -1.4604,-2.1431 -2.4086,-5.5161 -2.8318,-10.1334 -0.425,-4.6035 -0.1282,-10.3821 0.894,-17.3213 z m 7.422,0.0409 c -0.8825,5.9863 -1.0643,10.2996 -0.5472,12.9123 0.5226,2.6126 1.5616,3.9256 3.119,3.9256 1.5959,0 3.0292,-1.2853 4.2802,-3.8432 1.2582,-2.5711 2.3713,-7.1607 3.3507,-13.8098 0.8229,-5.5853 0.9644,-9.6633 0.4304,-12.2344 -0.5375,-2.5856 -1.5862,-3.8709 -3.155,-3.8709 -1.5008,0 -2.9041,1.313 -4.1966,3.9257 -1.2985,2.6132 -2.3917,6.9537 -3.2815,12.9947 z M 99.8011,45.4085 h 19.8967 l -1.8699,12.6907 h -12.4354 l -1.3931,9.4556 h 11.5277 l -1.7843,12.1104 h -11.5277 l -1.7235,11.695 h 12.8051 l -1.98,13.4372 H 91.0505 Z m 17.6753,39.7445 7.2191,-1.092 c -0.2642,2.8203 -0.2684,4.9767 -0.0138,6.442 0.4154,2.3917 1.3304,3.5945 2.7529,3.5945 1.059,0 1.9662,-0.608 2.7187,-1.8385 0.7585,-1.2305 1.2539,-2.6542 1.4923,-4.2718 0.2258,-1.5345 0.1607,-2.9167 -0.2035,-4.1333 -0.3642,-1.2167 -1.4628,-2.3502 -3.2905,-3.4422 -2.9949,-1.7976 -4.9598,-4.2026 -5.9068,-7.2023 -0.9608,-2.9866 -1.0986,-6.802 -0.4142,-11.4464 0.4479,-3.0413 1.2299,-5.9171 2.3466,-8.6267 1.1179,-2.7234 2.5073,-4.8521 4.1749,-6.4004 1.6675,-1.5484 3.7534,-2.3225 6.2578,-2.3225 3.075,0 5.209,1.4098 6.404,4.2441 1.198,2.8197 1.4942,7.313 0.8934,13.4787 l -7.1415,1.0228 c 0.2125,-2.6958 0.1095,-4.6589 -0.3046,-5.8755 -0.4184,-1.2299 -1.1523,-1.8385 -2.1997,-1.8385 -0.8627,0 -1.5851,0.4563 -2.1546,1.3551 -0.5689,0.8982 -0.9505,2.004 -1.142,3.3037 -0.1384,0.9398 -0.0837,1.7832 0.1571,2.5435 0.2258,0.788 0.9488,1.5068 2.16,2.1846 2.9943,1.7278 5.0604,3.4832 6.2,5.2531 1.145,1.7693 1.8481,3.9533 2.0998,6.5804 0.2534,2.6127 0.1414,5.5432 -0.3378,8.7922 -0.5598,3.8016 -1.5032,7.3125 -2.8288,10.5338 -1.3298,3.2074 -2.8781,5.6539 -4.657,7.313 -1.7741,1.6592 -3.8227,2.4881 -6.153,2.4881 -4.0894,0 -6.6365,-1.9493 -7.6382,-5.8334 -1.0017,-3.8846 -1.1649,-8.8198 -0.4906,-14.8061 z m 30.2618,-39.7445 h 22.6189 l -2.163,14.6815 h -7.596 l -6.587,44.7074 h -7.4275 L 153.1707,60.09 h -7.5954 z m 31.7061,49.6016 h -8.425 l -2.6518,9.7873 h -7.59 l 17.8077,-59.3889 h 8.139 l 0.2685,59.3889 h -7.7862 z m 0.3202,-12.8569 0.5178,-21.3444 -5.7834,21.3444 z m 18.9636,-36.7447 h 11.0515 c 2.1738,0 3.8305,0.7326 4.955,2.1846 1.1228,1.4653 1.9246,3.5524 2.4026,6.2759 0.4708,2.7372 0.6369,5.9031 0.4954,9.5248 -0.136,3.6222 -0.5038,7.4515 -1.1004,11.5017 -0.9355,6.3457 -1.9517,11.267 -3.0551,14.7647 -1.0981,3.497 -2.3424,6.4281 -3.7324,8.7921 -1.3901,2.3635 -2.7367,3.9395 -4.0461,4.7275 -1.7891,1.0782 -3.3471,1.6176 -4.6691,1.6176 h -11.0521 z m 5.4481,13.4372 -4.7787,32.4314 h 1.8259 c 1.5573,0 2.7294,-0.4286 3.5144,-1.2714 0.782,-0.8572 1.5153,-2.3364 2.2022,-4.4518 0.6892,-2.1286 1.3791,-5.557 2.0799,-10.3128 0.9264,-6.2897 1.1456,-10.5892 0.6531,-12.9117 -0.4924,-2.3225 -1.7048,-3.4837 -3.6372,-3.4837 z m 15.8085,16.2991 c 1.4273,-9.691 3.6318,-17.2388 6.6165,-22.6303 2.9865,-5.4054 6.4312,-8.1011 10.3411,-8.1011 4.0051,0 6.7003,2.6542 8.0879,7.9487 1.3858,5.3085 1.3707,12.7462 -0.0367,22.2987 -1.0222,6.9398 -2.3298,12.6215 -3.9305,17.0588 -1.6007,4.4379 -3.4819,7.894 -5.6335,10.3682 -2.1575,2.4748 -4.5679,3.7047 -7.2396,3.7047 -2.7114,0 -4.8009,-1.0643 -6.268,-3.193 -1.4605,-2.1431 -2.4086,-5.5161 -2.8312,-10.1334 -0.4256,-4.6035 -0.1288,-10.3821 0.894,-17.3213 z m 7.4214,0.0409 c -0.8819,5.9863 -1.0637,10.2996 -0.5472,12.9123 0.5225,2.6126 1.5616,3.9256 3.1189,3.9256 1.5959,0 3.0293,-1.2853 4.2802,-3.8432 1.2582,-2.5711 2.3713,-7.1607 3.3508,-13.8098 0.8229,-5.5853 0.9644,-9.6633 0.4304,-12.2344 -0.5376,-2.5856 -1.5863,-3.8709 -3.1545,-3.8709 -1.5014,0 -2.9046,1.313 -4.1971,3.9257 -1.2985,2.6132 -2.3918,6.9537 -3.2815,12.9947 z m 54.5573,-29.7772 h 11.0515 c 2.1738,0 3.8299,0.7326 4.955,2.1846 1.1227,1.4653 1.924,3.5524 2.4026,6.2759 0.4702,2.7372 0.6369,5.9031 0.4954,9.5248 -0.136,3.6222 -0.5038,7.4515 -1.101,11.5017 -0.9349,6.3457 -1.9517,11.267 -3.0552,14.7647 -1.0974,3.497 -2.3417,6.4281 -3.7317,8.7921 -1.3901,2.3635 -2.7373,3.9395 -4.0461,4.7275 -1.7891,1.0782 -3.3471,1.6176 -4.6697,1.6176 h -11.0515 z m 5.4475,13.4372 -4.7781,32.4314 h 1.8259 c 1.5573,0 2.7294,-0.4286 3.5144,-1.2714 0.782,-0.8572 1.5153,-2.3364 2.2021,-4.4518 0.6887,-2.1286 1.3792,-5.557 2.08,-10.3128 0.9264,-6.2897 1.145,-10.5892 0.6531,-12.9117 -0.4924,-2.3225 -1.7048,-3.4837 -3.6373,-3.4837 z m 21.1313,-13.4372 h 19.8967 l -1.8698,12.6907 h -12.4355 l -1.3936,9.4556 h 11.5282 l -1.7843,12.1104 h -11.5283 l -1.7229,11.695 h 12.8051 l -1.98,13.4372 h -20.2662 z m 59.3444,37.906 1.8211,-12.3584 h 11.4945 l -3.7215,25.2562 c -2.7476,3.7053 -5.0641,6.2349 -6.9477,7.5762 -1.8891,1.3406 -3.9925,2.004 -6.3114,2.004 -2.8564,0 -5.0098,-1.2022 -6.4534,-3.6078 -1.4454,-2.3917 -2.3129,-5.9724 -2.6036,-10.7276 -0.2926,-4.7419 0.0186,-10.202 0.9252,-16.3539 0.9554,-6.4835 2.328,-12.1104 4.1159,-16.9071 1.7855,-4.7835 3.9064,-8.4189 6.3625,-10.9076 1.9132,-1.9216 4.2495,-2.8751 7.0055,-2.8751 2.6548,0 4.5559,0.5941 5.6973,1.7831 1.1468,1.1889 1.9679,3.0274 2.4676,5.5299 0.4996,2.5019 0.6887,5.6679 0.5611,9.4972 l -7.6274,3.1797 c 0.0356,-2.2533 -0.2089,-3.9816 -0.7392,-5.1705 -0.5286,-1.2028 -1.3371,-1.797 -2.4351,-1.797 -1.6242,0 -3.1298,1.396 -4.5102,4.1887 -1.3804,2.7927 -2.5139,7.2161 -3.4043,13.2572 -0.9451,6.4143 -1.1335,11.0039 -0.5592,13.7551 0.5695,2.7511 1.7325,4.1333 3.4801,4.1333 0.8296,0 1.6621,-0.2902 2.5055,-0.8844 0.8386,-0.5947 1.8494,-1.6037 3.0323,-3.0136 l 0.8187,-5.5576 z m 16.697,-8.1697 c 1.428,-9.691 3.6325,-17.2388 6.6172,-22.6303 2.9865,-5.4054 6.4311,-8.1011 10.3411,-8.1011 4.0045,0 6.7003,2.6542 8.0879,7.9487 1.3858,5.3085 1.3707,12.7462 -0.0367,22.2987 -1.0228,6.9398 -2.3304,12.6215 -3.9305,17.0588 -1.6007,4.4379 -3.4826,7.894 -5.6335,10.3682 -2.1576,2.4748 -4.568,3.7047 -7.2402,3.7047 -2.7108,0 -4.8004,-1.0643 -6.268,-3.193 -1.4599,-2.1431 -2.408,-5.5161 -2.8312,-10.1334 -0.425,-4.6035 -0.1283,-10.3821 0.8939,-17.3213 z m 7.4215,0.0409 c -0.882,5.9863 -1.0638,10.2996 -0.5466,12.9123 0.5225,2.6126 1.5615,3.9256 3.1183,3.9256 1.5965,0 3.0293,-1.2853 4.2802,-3.8432 1.2582,-2.5711 2.3713,-7.1607 3.3513,-13.8098 0.823,-5.5853 0.9644,-9.6633 0.4305,-12.2344 -0.5382,-2.5856 -1.5863,-3.8709 -3.1551,-3.8709 -1.5008,0 -2.9046,1.313 -4.1971,3.9257 -1.2979,2.6132 -2.3912,6.9537 -3.2815,12.9947 z m 26.7371,-29.7772 h 7.4618 l -8.7507,59.3889 h -7.4611 z m 20.8111,49.6016 h -8.4244 l -2.6524,9.7873 h -7.59 l 17.8084,-59.3889 h 8.139 l 0.2679,59.3889 h -7.7863 z m 0.3203,-12.8569 0.5183,-21.3444 -5.7834,21.3444 z m 11.7299,2.9998 7.2186,-1.092 c -0.2643,2.8203 -0.2679,4.9767 -0.0133,6.442 0.4148,2.3917 1.3298,3.5945 2.753,3.5945 1.0583,0 1.9655,-0.608 2.7186,-1.8385 0.7579,-1.2305 1.2533,-2.6542 1.4917,-4.2718 0.2264,-1.5345 0.1608,-2.9167 -0.2034,-4.1333 -0.3636,-1.2167 -1.4629,-2.3502 -3.2906,-3.4422 -2.9949,-1.7976 -4.9598,-4.2026 -5.9068,-7.2023 -0.9602,-2.9866 -1.098,-6.802 -0.4141,-11.4464 0.4484,-3.0413 1.2304,-5.9171 2.3465,-8.6267 1.1186,-2.7234 2.5074,-4.8521 4.1755,-6.4004 1.6675,-1.5484 3.7535,-2.3225 6.2572,-2.3225 3.0756,0 5.2091,1.4098 6.4046,4.2441 1.198,2.8197 1.4936,7.313 0.8934,13.4787 l -7.1415,1.0228 c 0.2125,-2.6958 0.1096,-4.6589 -0.3052,-5.8755 -0.4178,-1.2299 -1.1516,-1.8385 -2.1991,-1.8385 -0.8627,0 -1.5857,0.4563 -2.1546,1.3551 -0.5695,0.8982 -0.9511,2.004 -1.1426,3.3037 -0.1384,0.9398 -0.083,1.7832 0.1578,2.5435 0.2251,0.788 0.9487,1.5068 2.1593,2.1846 2.9944,1.7278 5.0604,3.4832 6.2,5.2531 1.145,1.7693 1.8487,3.9533 2.1004,6.5804 0.2534,2.6127 0.1408,5.5432 -0.3377,8.7922 -0.5605,3.8016 -1.5032,7.3125 -2.8294,10.5338 -1.3298,3.2074 -2.8776,5.6539 -4.6571,7.313 -1.7735,1.6592 -3.8227,2.4881 -6.153,2.4881 -4.0888,0 -6.6358,-1.9493 -7.6382,-5.8334 -1.0017,-3.8846 -1.1648,-8.8198 -0.49,-14.8061 z" />
    </g>
  </g>
</svg>
